<?xml version="1.0" standalone="no"?>
<!DOCTYPE svg PUBLIC "-//W3C//DTD SVG 20010904//EN"
 "http://www.w3.org/TR/2001/REC-SVG-20010904/DTD/svg10.dtd">
<svg version="1.0" xmlns="http://www.w3.org/2000/svg"
 width="600.000000pt" height="375.000000pt" viewBox="0 0 600.000000 375.000000"
 preserveAspectRatio="xMidYMid meet">

<g transform="translate(0.000000,375.000000) scale(0.100000,-0.100000)"
fill="#000000" stroke="none">
<path d="M0 3221 c0 -496 1 -530 17 -534 17 -4 17 -5 1 -6 -14 -1 -18 -10 -18
-42 0 -27 4 -38 11 -33 8 5 8 1 0 -14 -7 -13 -11 -91 -10 -214 0 -106 3 -187
6 -180 2 6 9 10 14 6 5 -3 9 0 9 6 0 6 5 8 11 5 5 -4 27 12 49 36 l38 42 30
-24 c17 -13 31 -28 31 -34 0 -5 -42 -62 -94 -125 l-95 -115 0 -997 0 -998
3000 0 3000 0 0 909 0 909 -40 48 c-22 27 -40 54 -40 60 0 15 39 6 63 -14 16
-14 17 -11 17 44 0 57 -2 60 -33 74 -39 18 -38 32 2 44 l31 9 0 834 0 833
-912 -2 -913 -3 -3 -47 c-3 -35 0 -48 10 -48 10 0 10 -2 -1 -9 -7 -5 -10 -14
-6 -21 5 -7 15 -1 30 20 19 26 24 28 29 14 6 -14 -10 -43 -35 -64 -3 -3 -9
-18 -13 -33 -5 -20 -11 -27 -22 -23 -16 6 -12 -7 13 -35 9 -11 11 -23 4 -40
l-9 -24 -11 30 c-6 17 -14 37 -17 45 -4 13 -6 13 -14 0 -5 -8 -7 -22 -4 -32 2
-9 1 -19 -5 -22 -13 -8 -2 -43 15 -50 8 -3 14 -20 14 -40 0 -19 3 -41 6 -50 8
-21 31 -20 37 2 3 10 5 6 6 -10 0 -16 -3 -28 -9 -28 -6 0 -6 -9 0 -24 5 -13 6
-27 3 -30 -3 -3 2 -17 11 -30 9 -14 16 -34 16 -45 0 -11 4 -22 9 -25 5 -3 7
-15 4 -26 -6 -23 14 -53 31 -47 7 3 11 -12 11 -42 0 -38 4 -48 23 -56 16 -7
22 -18 22 -43 0 -18 4 -31 9 -27 6 3 -2 -15 -15 -40 -14 -25 -21 -45 -15 -45
6 0 11 -7 11 -15 0 -8 6 -15 12 -15 7 0 2 -7 -10 -16 -13 -9 -21 -22 -18 -29
3 -10 -2 -12 -20 -9 -22 4 -23 2 -12 -10 7 -7 16 -12 20 -10 3 2 3 -6 0 -18
-5 -19 -7 -20 -10 -5 -2 9 -8 15 -13 11 -5 -3 -12 3 -16 13 -4 10 -13 23 -21
29 -11 8 -13 22 -9 48 3 21 2 49 -4 62 -5 15 -5 32 0 42 11 20 -12 125 -42
195 -11 26 -22 47 -24 47 -2 0 -16 -8 -31 -17 -17 -10 -22 -11 -14 -3 18 21
15 51 -8 57 -10 3 -22 13 -25 24 -3 10 -14 21 -24 24 -27 8 -53 41 -56 69 -2
13 -11 35 -20 50 -10 14 -15 26 -12 26 2 0 22 -27 43 -60 23 -37 45 -60 56
-60 22 0 24 26 2 38 -11 6 -13 11 -5 16 13 8 15 46 2 46 -14 0 -24 72 -12 80
6 3 10 17 10 31 -1 13 3 37 10 52 14 35 14 91 1 136 -5 18 -6 41 -1 50 5 9 11
28 15 44 l6 27 -1023 0 -1023 0 2 -29 c1 -23 -3 -31 -22 -35 -29 -8 -32 -26
-4 -26 11 0 20 -7 20 -15 0 -9 11 -21 25 -27 l26 -12 -32 -13 c-17 -7 -33 -22
-36 -33 -3 -12 -14 -20 -27 -20 -27 0 -86 -50 -86 -74 0 -9 -9 -27 -21 -39
-11 -12 -18 -29 -16 -39 3 -10 -3 -18 -15 -21 -11 -3 -17 -10 -14 -15 3 -6
-12 -27 -34 -48 -22 -21 -40 -42 -40 -47 0 -5 19 -7 43 -5 23 3 34 3 25 1 -10
-3 -18 -8 -18 -13 0 -11 -96 -33 -110 -25 -5 3 -11 1 -11 -4 -1 -6 -3 -15 -4
-21 -1 -5 -3 -14 -4 -20 0 -5 -5 -10 -9 -10 -5 0 -7 14 -4 30 l4 30 -31 -17
c-17 -10 -31 -24 -31 -31 0 -8 -9 -16 -20 -19 -11 -3 -20 -12 -20 -20 0 -8 5
-11 12 -7 6 4 4 -3 -5 -17 -23 -32 -21 -42 8 -37 13 3 22 1 19 -3 -3 -5 -16
-9 -30 -9 -13 0 -24 -6 -24 -13 0 -7 -6 -19 -12 -25 -13 -13 -14 -17 -17 -45
0 -8 -10 -25 -21 -37 -12 -13 -20 -35 -19 -49 2 -32 -10 -71 -23 -71 -5 0 -6
-9 -3 -20 5 -14 2 -20 -10 -20 -9 0 -13 -4 -10 -10 6 -9 -8 -14 -28 -11 -4 0
-6 -2 -5 -6 1 -5 -14 -25 -34 -45 -31 -31 -37 -34 -43 -20 -6 15 -8 14 -16 -5
-4 -13 -12 -23 -16 -24 -53 -4 -93 -3 -93 2 0 4 -8 10 -17 13 -10 4 -14 4 -10
0 10 -11 -13 -34 -33 -34 -14 0 -18 7 -16 32 1 22 -4 33 -14 34 -8 0 -18 2
-23 2 -4 1 4 20 18 42 26 42 48 90 40 90 -2 0 -23 -32 -46 -70 -23 -39 -43
-69 -45 -68 -5 6 24 106 40 137 21 39 37 81 31 81 -2 0 -16 -19 -30 -42 l-27
-43 6 38 c3 22 1 35 -5 32 -5 -4 -9 -2 -9 4 0 5 5 11 11 13 7 2 9 13 5 25 -4
12 -12 20 -19 18 -7 -2 -31 -6 -54 -8 -40 -4 -43 -2 -43 19 0 20 -5 24 -30 24
-27 0 -30 3 -30 30 0 37 6 37 41 4 17 -16 43 -28 70 -31 59 -8 123 -54 142
-102 14 -33 48 -184 50 -218 1 -16 7 -16 30 1 20 15 23 30 5 21 -7 -4 -2 3 11
14 12 12 27 18 32 15 5 -3 8 0 7 7 -2 8 7 14 20 15 21 1 57 24 38 24 -5 0 3 9
18 21 14 11 26 27 26 35 0 8 8 27 17 41 19 29 43 90 43 110 0 7 -7 10 -17 7
-17 -5 -17 -5 -1 8 13 11 15 27 12 80 -3 52 0 69 13 79 14 13 15 12 6 -6 -6
-11 -8 -27 -4 -35 7 -18 37 -20 34 -2 -2 7 1 12 7 12 5 0 17 14 26 31 13 26
14 33 2 40 -9 6 -5 9 15 9 23 0 31 8 29 31 -1 3 8 5 18 5 26 -1 109 65 110 87
0 9 4 17 10 17 5 0 7 -7 4 -15 -9 -23 3 -18 49 17 23 18 43 33 45 34 1 1 -2
12 -7 25 -7 18 -10 20 -10 6 -1 -10 -5 -15 -11 -12 -5 3 -10 0 -10 -7 0 -10
-2 -10 -9 1 -6 9 -11 10 -15 2 -4 -6 -12 -11 -17 -11 -6 0 -3 7 5 16 9 8 21
24 26 35 9 15 7 19 -5 19 -9 0 -25 9 -37 20 -24 22 -49 27 -46 8 2 -6 -7 -17
-20 -23 -12 -7 -30 -21 -38 -31 -9 -11 -13 -13 -9 -7 3 7 1 22 -5 33 -6 12 -7
20 -1 20 5 0 11 15 13 33 2 17 8 32 13 33 20 1 75 39 80 55 6 18 61 79 67 74
2 -1 26 1 53 6 28 5 55 10 60 11 6 1 24 14 40 30 l30 28 -977 0 -978 0 0 -529z
m4810 381 c0 -15 -2 -15 -10 -2 -13 20 -13 33 0 25 6 -3 10 -14 10 -23z m180
-79 c0 -7 11 -13 25 -13 14 0 25 -2 25 -4 0 -2 3 -13 6 -23 5 -15 4 -15 -5 -3
-9 12 -11 10 -11 -10 0 -33 13 -52 31 -45 8 3 28 -7 45 -22 16 -16 23 -22 14
-15 -19 14 -34 16 -26 3 3 -5 0 -25 -7 -46 l-13 -37 -11 25 c-10 20 -9 28 3
37 8 7 14 18 14 24 0 6 -5 4 -10 -4 -9 -13 -13 -11 -29 9 -12 16 -24 22 -35
18 -14 -6 -15 -4 -5 16 12 21 11 21 -6 7 -12 -10 -16 -11 -11 -2 4 7 5 25 2
38 -6 23 -9 24 -23 12 -12 -9 -15 -9 -9 0 5 8 1 12 -11 13 -10 0 -26 2 -36 4
-15 3 -18 -1 -12 -18 3 -12 8 -37 10 -54 3 -29 1 -33 -21 -33 -21 0 -23 3 -14
19 12 23 13 34 3 28 -5 -3 -8 8 -9 24 -1 16 3 29 7 29 5 0 9 11 9 24 0 13 7
29 14 36 13 10 14 7 11 -17 -2 -15 -2 -22 1 -16 4 8 15 11 30 7 18 -5 24 -2
24 11 0 9 -9 19 -19 22 -16 4 -17 8 -8 18 9 10 16 6 34 -18 13 -17 23 -37 23
-44z m-1077 22 c-3 -13 -12 -30 -21 -37 -13 -11 -14 -10 -4 7 6 11 13 28 16
38 8 26 14 21 9 -8z m937 -29 c-7 -9 -17 -16 -22 -16 -6 0 -5 7 2 15 9 10 9
15 1 15 -6 0 -11 10 -11 22 l0 22 22 -21 c18 -18 19 -24 8 -37z m-93 -18 c-3
-8 -6 -5 -6 6 -1 11 2 17 5 13 3 -3 4 -12 1 -19z m-2717 -4 c0 -2 -9 -4 -21
-4 -11 0 -18 4 -14 10 5 8 35 3 35 -6z m2715 -46 c-7 -18 -21 -35 -30 -36 -13
-3 -11 5 11 32 16 20 30 36 31 36 1 0 -4 -15 -12 -32z m21 -44 c-3 -8 -13 -14
-21 -14 -9 0 -13 5 -10 10 4 6 11 7 17 4 7 -4 8 -2 4 5 -4 7 -4 20 0 29 7 16
7 16 11 -1 3 -10 2 -25 -1 -33z m684 25 c0 -6 9 -9 20 -6 25 6 25 3 -1 -21
l-20 -20 32 -11 c42 -15 54 -14 41 2 -13 15 1 43 16 33 6 -4 20 -1 31 6 16 10
28 9 67 -7 26 -11 54 -31 63 -45 l16 -25 -32 23 c-42 30 -55 28 -20 -2 16 -14
26 -29 23 -35 -8 -13 -36 -3 -33 12 1 6 -9 13 -23 14 l-25 2 25 -8 c14 -5 21
-9 16 -10 -5 -1 1 -12 13 -25 21 -23 22 -25 4 -29 -15 -4 -14 -5 4 -6 12 0 25
-6 29 -12 5 -8 -3 -10 -25 -7 -17 2 -31 1 -31 -4 0 -4 5 -8 10 -8 6 0 10 -9
10 -19 0 -21 -19 -22 -44 -2 -21 18 -20 32 2 24 14 -6 15 -4 4 9 -10 13 -10
17 5 22 11 5 13 10 7 14 -6 4 -19 22 -28 40 -15 29 -15 32 -1 32 24 0 9 17
-21 24 -29 8 -52 -12 -31 -26 18 -12 -11 -28 -50 -28 -18 0 -33 -4 -33 -10 0
-5 3 -10 8 -11 41 -4 60 -3 56 3 -10 16 13 7 34 -12 27 -26 28 -44 1 -68 -17
-17 -18 -20 -5 -25 11 -5 16 -20 16 -49 -1 -35 -3 -40 -11 -25 -8 13 -14 15
-23 8 -9 -8 -16 -4 -26 14 -16 30 -16 30 -73 5 -39 -17 -45 -24 -43 -46 2 -16
15 -33 34 -46 l32 -20 0 22 c0 14 4 19 13 13 24 -15 47 -12 57 7 8 15 19 19
38 17 24 -4 27 -8 24 -38 -2 -19 -8 -42 -13 -51 -13 -24 -11 -48 4 -46 7 2 13
-10 15 -27 2 -16 1 -27 -3 -23 -4 4 -16 -3 -26 -17 -15 -18 -17 -29 -9 -49 6
-16 6 -27 -1 -31 -5 -4 -9 -3 -8 2 5 19 -26 64 -47 69 -27 7 -124 -42 -124
-63 0 -7 5 -13 10 -13 6 0 10 4 10 9 0 15 101 41 121 31 22 -12 29 -53 12 -69
-8 -7 -34 -19 -58 -28 -25 -8 -45 -19 -45 -23 0 -4 -8 -6 -18 -3 -10 2 -37
-11 -66 -33 -41 -31 -56 -37 -102 -38 -56 -1 -71 13 -36 33 10 6 12 11 4 11
-9 0 -10 5 -2 19 14 28 13 41 -6 41 -12 0 -14 7 -9 33 5 24 4 28 -4 17 -9 -12
-11 -10 -12 10 -1 24 -1 24 -9 -4 -15 -48 -34 -51 -41 -8 -4 20 -2 42 3 49 19
24 3 31 -22 10 -35 -31 -56 -120 -35 -150 19 -27 20 -47 1 -21 -14 19 -15 19
-13 -1 1 -11 -5 -21 -16 -23 -15 -3 -17 2 -13 45 2 26 7 60 11 76 6 23 4 27
-14 27 -12 0 -21 -6 -22 -12 0 -10 -2 -10 -6 -1 -2 7 5 26 17 43 12 16 19 34
15 39 -3 5 0 13 6 17 8 5 9 3 4 -7 -5 -8 -5 -11 -1 -7 4 3 6 8 4 11 -1 2 3 11
11 20 15 19 1 23 -16 6 -7 -7 -19 -9 -29 -5 -15 6 -15 9 6 31 l23 24 -44 1
c-89 0 -138 7 -154 20 -14 12 -14 15 5 35 25 26 25 32 3 38 -10 3 -2 5 17 6
38 1 54 -6 63 -29 4 -9 6 -4 4 10 -2 20 -10 27 -39 34 -33 8 -38 14 -38 37 0
15 -7 35 -16 44 -16 16 -13 45 5 45 5 0 12 9 16 19 3 10 15 21 27 25 26 6 38
-2 19 -13 -10 -7 -11 -13 -1 -30 l11 -22 20 22 c15 17 17 24 7 31 -10 6 -9 8
3 8 8 0 24 -7 35 -15 21 -16 54 -20 54 -7 0 5 -12 14 -26 20 -14 7 -22 17 -19
22 6 10 59 -12 69 -29 3 -5 2 -29 -3 -54 -9 -51 -3 -55 37 -19 22 19 52 30 52
18 0 -2 3 -12 7 -22 5 -13 3 -15 -7 -9 -10 6 -11 2 -6 -19 4 -17 1 -35 -11
-53 -10 -15 -16 -38 -15 -52 4 -34 25 -81 35 -81 5 0 5 -4 2 -10 -3 -5 -1 -10
4 -10 6 0 11 4 11 9 0 4 11 6 25 3 14 -2 22 -8 19 -13 -3 -5 2 -9 11 -9 9 0
13 5 10 11 -4 5 9 3 29 -5 l35 -15 -6 32 c-5 26 -23 61 -49 96 -2 2 -24 -2
-49 -9 -25 -7 -48 -10 -51 -7 -3 3 16 11 43 19 l48 14 6 69 c3 39 11 86 17
105 7 20 10 51 8 69 -5 42 3 73 18 68 6 -2 16 2 21 9 6 8 35 20 65 28 69 18
70 18 70 5z m-1247 -19 c3 -11 2 -22 -2 -24 -4 -3 -8 6 -9 20 -2 29 4 31 11 4z
m-2205 -17 c2 -8 -5 -13 -17 -13 -12 0 -21 6 -21 16 0 18 31 15 38 -3z m-1731
-14 c53 -26 79 -62 82 -114 1 -22 9 -65 17 -96 12 -42 13 -65 6 -91 -6 -21 -6
-41 -1 -49 6 -11 9 -8 9 8 0 12 7 28 15 37 9 8 15 19 15 23 -1 4 4 9 10 11 8
3 10 -3 6 -16 -4 -11 -2 -23 4 -27 6 -4 9 -14 6 -23 -2 -10 -7 -29 -10 -43 -8
-36 -29 -42 -58 -17 l-23 20 -3 -22 c-3 -16 -7 -19 -17 -10 -9 8 -21 6 -43 -7
-29 -17 -31 -17 -50 0 -10 9 -22 14 -25 10 -4 -3 -7 -1 -7 5 0 6 -6 9 -14 6
-8 -3 -19 3 -26 15 -9 19 -8 21 14 21 13 0 26 6 29 14 7 18 -1 26 -27 26 -15
0 -17 3 -9 11 15 15 106 -8 96 -24 -3 -6 -1 -7 5 -3 6 4 9 13 6 21 -4 8 -9 13
-13 10 -9 -5 -78 18 -88 30 -5 4 -3 5 4 1 6 -3 15 -2 18 4 5 8 12 7 23 -2 14
-12 14 -10 3 10 -6 12 -16 22 -21 22 -6 0 -10 5 -10 12 0 9 3 9 12 0 19 -19
30 -14 18 9 -7 11 -14 18 -17 15 -3 -2 -14 4 -25 14 -18 17 -19 22 -7 54 7 20
19 36 26 36 7 0 13 5 13 10 0 15 -11 12 -32 -6 -16 -15 -18 -15 -23 -1 -6 13
-11 13 -46 -1 -22 -8 -47 -27 -55 -41 l-15 -26 7 25 c4 14 9 38 10 53 1 16 4
29 6 30 1 1 15 13 30 25 26 23 89 51 117 52 8 0 34 -9 58 -21z m580 1 c38 -23
62 -60 38 -60 -19 0 -19 -3 5 -47 11 -21 20 -44 20 -51 0 -28 -32 -124 -39
-114 -3 5 -22 14 -41 19 -31 9 -35 13 -34 41 2 37 -9 41 -33 12 -27 -31 -32
-25 -31 33 0 28 -1 59 -3 67 -3 11 3 14 24 12 16 -2 26 1 23 6 -3 5 6 7 19 4
24 -4 30 -17 27 -55 -2 -14 4 -18 23 -15 24 3 33 24 9 22 -6 -1 -10 10 -8 24
5 46 -12 63 -59 60 -36 -3 -44 1 -54 21 -7 12 -10 27 -7 32 10 16 88 9 121
-11z m3093 -15 c0 -5 -5 -3 -10 5 -5 8 -10 20 -10 25 0 6 5 3 10 -5 5 -8 10
-19 10 -25z m295 15 c3 -5 1 -10 -4 -10 -6 0 -11 5 -11 10 0 6 2 10 4 10 3 0
8 -4 11 -10z m681 -41 c3 -6 -5 -3 -20 6 -14 10 -26 19 -26 22 0 7 39 -17 46
-28z m-3376 17 c0 -2 -7 -7 -16 -10 -8 -3 -12 -2 -9 4 6 10 25 14 25 6z
m-1490 -26 c0 -5 -7 -7 -15 -4 -8 4 -12 10 -9 15 6 11 24 2 24 -11z m5125 -66
c4 -25 3 -24 -8 6 -8 19 -17 46 -20 60 -5 19 -3 17 8 -6 7 -17 16 -44 20 -60z
m-435 62 c0 -11 -19 -15 -25 -6 -3 5 1 10 9 10 9 0 16 -2 16 -4z m150 -26 c0
-5 -10 -10 -22 -9 -22 0 -22 1 -3 9 11 5 21 9 23 9 1 1 2 -3 2 -9z m-2984 -42
c4 -7 -26 -6 -54 1 -2 1 -1 5 2 10 7 11 44 3 52 -11z m-416 -20 c0 -5 -4 -7
-9 -3 -5 3 -12 -5 -14 -17 -3 -14 -5 -8 -6 16 -1 33 1 37 14 26 8 -7 15 -17
15 -22z m3287 -125 c-2 -16 -4 -3 -4 27 0 30 2 43 4 28 2 -16 2 -40 0 -55z
m983 59 c-8 -2 -23 -14 -32 -26 -15 -18 -18 -18 -18 -4 0 20 39 50 54 41 6 -4
4 -8 -4 -11z m-5705 -23 c6 -2 0 -14 -12 -26 -21 -21 -23 -21 -23 -3 0 27 12
53 19 42 3 -5 11 -11 16 -13z m5575 6 c0 -8 -2 -15 -4 -15 -2 0 -6 7 -10 15
-3 8 -1 15 4 15 6 0 10 -7 10 -15z m164 -43 c-6 -14 -8 -13 -14 8 -9 31 0 48
12 26 5 -10 6 -25 2 -34z m-3403 21 c13 -16 12 -17 -3 -4 -10 7 -18 15 -18 17
0 8 8 3 21 -13z m2466 -5 c-3 -8 -6 -5 -6 6 -1 11 2 17 5 13 3 -3 4 -12 1 -19z
m-4741 -10 c-9 -13 -21 -33 -26 -45 -14 -34 -19 -28 -10 13 8 35 23 53 44 54
5 0 1 -10 -8 -22z m5399 3 c-2 -4 -18 -6 -34 -3 -17 2 -29 7 -26 11 2 4 18 6
34 3 17 -2 29 -7 26 -11z m256 -28 c17 -41 19 -54 9 -85 -8 -27 -16 -38 -30
-38 -24 0 -26 13 -5 30 8 7 15 17 15 23 0 6 -7 2 -16 -9 -15 -18 -15 -18 -10
6 3 14 6 35 6 48 0 13 4 20 10 17 6 -3 10 -2 10 4 0 5 -4 13 -10 16 -10 6 -14
35 -5 35 3 0 15 -21 26 -47z m-1686 -22 c3 -5 1 -12 -5 -16 -5 -3 -10 1 -10 9
0 18 6 21 15 7z m-3225 -28 c0 -16 -11 -46 -25 -68 -13 -22 -24 -49 -24 -60 0
-18 2 -17 24 8 26 30 40 35 31 12 -3 -8 -1 -15 4 -15 6 0 10 -13 10 -30 0 -20
-7 -33 -22 -41 -18 -10 -20 -9 -15 5 4 9 2 16 -3 16 -5 0 -7 7 -4 15 9 24 -22
8 -40 -20 -21 -32 -20 -35 7 -36 20 -1 20 -2 2 -6 -44 -9 -171 -80 -208 -116
-31 -31 -37 -44 -33 -63 6 -23 6 -24 -14 -7 -11 10 -20 19 -20 22 0 2 3 2 6
-2 4 -3 15 9 24 29 15 29 108 151 148 192 21 23 34 52 22 52 -6 0 -15 -12 -21
-26 -5 -15 -12 -24 -16 -20 -4 3 3 20 15 36 12 16 22 34 22 41 0 7 9 9 26 5
22 -6 25 -4 20 10 -3 9 -1 23 5 31 9 10 9 17 1 25 -23 23 -8 34 51 37 23 1 27
-3 27 -26z m1638 -13 c15 0 15 -2 2 -10 -8 -5 -10 -10 -4 -10 16 0 58 -39 51
-46 -4 -4 -18 1 -31 10 -14 9 -31 16 -38 16 -8 0 -13 14 -14 37 -1 27 1 32 8
20 5 -10 17 -17 26 -17z m-1943 -34 c-11 -8 -23 -12 -26 -10 -4 2 -9 -3 -13
-11 -6 -16 -36 -21 -36 -6 0 13 49 39 74 40 20 1 20 1 1 -13z m375 -45 c0 -10
7 -35 15 -55 15 -36 8 -48 -14 -22 -17 20 -31 74 -24 92 7 18 23 8 23 -15z
m1560 9 c0 -5 -2 -10 -4 -10 -3 0 -8 5 -11 10 -3 6 -1 10 4 10 6 0 11 -4 11
-10z m1343 -24 c-10 -13 -19 -23 -21 -21 -7 6 19 45 29 45 5 0 2 -11 -8 -24z
m47 3 c0 -11 -4 -17 -10 -14 -5 3 -10 13 -10 21 0 8 5 14 10 14 6 0 10 -9 10
-21z m-3520 -20 c0 -12 7 -19 20 -19 23 0 25 -17 5 -44 -8 -11 -15 -28 -15
-38 0 -21 -11 -23 -28 -6 -9 9 -9 15 1 27 6 9 -1 6 -17 -7 -15 -12 -32 -19
-37 -16 -5 3 -9 0 -9 -5 0 -6 -7 -11 -15 -11 -10 0 -4 11 17 31 30 27 30 29 6
14 -16 -10 -28 -16 -29 -14 -6 31 -6 39 3 39 13 0 74 62 71 72 -2 4 4 5 12 2
8 -4 15 -15 15 -25z m2020 -19 c0 -5 -5 -10 -11 -10 -5 0 -7 5 -4 10 3 6 8 10
11 10 2 0 4 -4 4 -10z m-1904 -35 c-3 -8 -10 -15 -15 -15 -7 0 -6 10 1 26 12
26 25 16 14 -11z m4314 -15 c-12 -16 -18 -30 -13 -30 4 0 3 -4 -3 -8 -18 -11
-46 -112 -31 -113 7 0 1 -5 -12 -10 -13 -5 -26 -7 -29 -4 -3 3 -1 5 5 5 6 0 8
11 5 25 -3 20 -10 25 -32 23 -24 -2 -29 -7 -34 -41 -4 -21 -11 -35 -16 -32
-13 8 -13 -1 1 -27 18 -34 1 -32 -21 3 l-20 34 6 -35 c4 -30 4 -32 -7 -16 -9
15 -13 16 -20 5 -14 -22 -10 5 5 42 17 39 117 139 162 162 17 9 39 28 49 44
11 16 20 22 23 15 2 -6 -6 -25 -18 -42z m-4114 15 c-1 -8 -11 -24 -22 -35 -10
-10 -28 -31 -39 -46 -32 -41 -68 -73 -77 -68 -5 3 -17 23 -28 44 -16 31 -24
37 -42 33 l-23 -5 22 16 c18 14 46 19 143 25 8 1 22 6 30 11 13 9 13 11 0 21
-13 9 -12 10 2 5 10 -3 20 -1 23 4 9 14 14 12 11 -5z m5193 -12 c-29 -35 -65
-138 -51 -147 11 -6 58 38 76 70 l15 29 1 -32 c0 -46 -75 -114 -221 -199 l-36
-22 -1 31 c0 16 -6 35 -13 41 -9 8 -10 8 -5 -1 12 -21 -5 -15 -26 9 -13 15
-15 24 -8 26 9 3 9 6 1 11 -7 5 3 23 30 52 22 24 45 51 50 59 7 12 8 10 9 -7
0 -12 5 -25 10 -28 15 -9 12 -19 -12 -45 -23 -25 -32 -50 -18 -50 4 0 6 -10 4
-22 -2 -13 -1 -16 2 -8 4 8 12 21 18 29 9 12 8 13 -3 6 -11 -6 -13 -4 -8 8 12
31 72 105 92 115 11 5 38 29 60 54 22 24 42 43 44 41 2 -1 -2 -11 -10 -20z
m-5638 -36 c-11 -28 -25 -35 -36 -17 -4 6 -11 8 -16 5 -5 -4 -9 2 -9 13 0 11
13 25 33 34 37 18 44 8 28 -35z m4608 -6 l21 -29 -30 11 c-18 7 -30 19 -30 29
0 26 16 22 39 -11z m171 -17 c0 -8 -19 -13 -24 -6 -3 5 1 9 9 9 8 0 15 -2 15
-3z m-4137 -40 c41 -27 48 -39 17 -31 -11 3 -20 1 -20 -4 0 -5 29 -50 65 -98
68 -93 80 -117 43 -85 l-23 19 19 -22 c10 -13 22 -20 27 -17 4 2 14 -7 21 -20
7 -14 16 -24 19 -23 13 5 79 -39 80 -53 0 -8 1 -29 2 -47 2 -29 0 -32 -23 -26
-14 3 -33 10 -42 14 -9 5 -29 9 -45 9 -15 0 -41 9 -58 20 -16 11 -26 20 -22
20 4 0 19 -7 32 -16 13 -9 29 -13 36 -9 8 6 7 10 -2 16 -10 6 -10 9 -2 9 7 0
10 6 7 14 -3 8 4 16 18 19 17 5 20 9 11 18 -9 9 -24 7 -65 -9 -73 -29 -110
-32 -114 -9 -1 9 2 17 7 17 5 0 6 7 1 18 -29 58 -43 77 -57 76 -11 -1 -13 2
-7 10 6 6 21 43 35 83 22 60 24 75 14 97 -13 29 -25 33 -33 13 -5 -14 -31 -16
-52 -3 -6 4 -18 4 -24 -1 -7 -4 -22 -8 -33 -8 -11 0 -19 -5 -18 -12 2 -7 -6
-17 -16 -22 -10 -6 -24 -25 -30 -42 -8 -22 -15 -29 -26 -25 -11 4 -15 1 -13
-11 2 -9 -3 -18 -9 -20 -7 -3 -13 1 -12 9 1 21 36 73 47 71 5 -1 9 5 8 14 0 9
9 22 20 28 12 6 29 16 37 23 12 10 16 10 19 0 3 -9 9 -5 19 10 12 20 19 22 59
16 25 -3 62 -17 83 -30z m747 22 c0 -9 12 -16 33 -18 17 -2 31 -5 29 -8 -2 -3
1 -17 7 -32 9 -23 8 -28 -4 -28 -8 0 -15 -2 -15 -4 0 -2 -3 -12 -7 -22 -4 -11
-3 -15 5 -10 14 8 32 -24 32 -58 0 -14 -7 -44 -16 -66 -18 -45 -38 -51 -80
-24 -35 24 -46 48 -34 79 7 20 7 27 -4 31 -8 3 -17 12 -20 21 -5 11 -1 14 13
10 12 -3 22 1 26 11 9 25 27 -1 29 -44 1 -22 -3 -42 -8 -46 -7 -5 -7 -11 1
-19 9 -9 16 -9 26 -1 10 9 16 9 25 0 9 -9 12 -9 12 -1 0 7 -9 18 -20 26 -21
14 -21 14 2 20 18 5 20 9 10 19 -6 6 -12 24 -12 39 0 34 -24 59 -56 59 -27 0
-31 12 -9 30 8 7 12 16 9 21 -6 11 4 29 17 29 5 0 9 -6 9 -14z m-1535 -15 c-3
-6 -11 -11 -17 -11 -6 0 -6 6 2 15 14 17 26 13 15 -4z m877 -28 c3 -16 9 -37
13 -48 7 -18 6 -18 -8 -5 -18 17 -36 97 -20 87 6 -4 13 -19 15 -34z m3404 26
c10 -17 -13 -36 -27 -22 -12 12 -4 33 11 33 5 0 12 -5 16 -11z m610 -26 c-8
-15 -15 -25 -16 -21 0 12 23 58 27 54 3 -2 -2 -17 -11 -33z m-4836 -3 c0 -5
-4 -10 -10 -10 -5 0 -10 5 -10 10 0 6 5 10 10 10 6 0 10 -4 10 -10z m363 3
c-7 -2 -21 -2 -30 0 -10 3 -4 5 12 5 17 0 24 -2 18 -5z m4357 -26 c0 -5 -4 -5
-10 -2 -5 3 -10 14 -10 23 0 15 2 15 10 2 5 -8 10 -19 10 -23z m-2866 8 c17
-9 33 -12 40 -6 6 5 20 5 31 1 18 -6 18 -7 1 -17 -24 -13 -15 -42 22 -67 15
-10 28 -26 29 -35 6 -50 17 -81 32 -86 9 -2 22 -17 29 -32 6 -16 28 -36 47
-45 39 -19 90 -24 80 -8 -11 18 22 11 46 -10 19 -15 21 -22 11 -28 -22 -15 8
-30 53 -27 54 4 55 5 20 20 l-30 14 38 1 c29 0 37 -4 37 -18 0 -10 -5 -23 -11
-29 -6 -6 -9 -15 -6 -20 9 -15 72 -14 93 1 23 17 57 4 72 -28 10 -21 10 -21
18 -1 8 21 23 35 38 35 6 0 2 -6 -7 -12 -14 -11 -43 -73 -117 -258 -11 -25
-23 -44 -29 -43 -6 2 -8 -3 -5 -11 3 -8 -6 -36 -20 -62 -14 -27 -28 -62 -32
-77 -5 -21 -11 -26 -25 -22 -11 4 -19 2 -19 -4 0 -6 4 -11 10 -11 6 0 5 -10
-2 -25 -7 -15 -19 -25 -33 -25 -16 0 -23 10 -33 46 -7 25 -10 50 -7 55 11 18
35 9 35 -13 0 -21 -1 -21 -14 -3 -11 16 -12 12 -2 -28 6 -26 16 -47 24 -47 10
0 11 15 6 64 -4 42 -3 66 5 70 6 4 11 16 11 26 0 16 -4 17 -29 10 -22 -6 -33
-4 -42 6 -9 11 -7 14 12 15 13 1 27 1 32 0 4 0 7 5 7 13 0 20 -30 29 -48 14
-14 -11 -14 -10 0 11 15 21 15 26 2 47 -12 17 -13 28 -5 43 21 38 13 98 -15
126 -14 14 -29 24 -31 21 -3 -3 4 -13 16 -23 14 -12 23 -33 26 -64 4 -44 3
-47 -26 -59 -34 -14 -48 -8 -29 15 7 8 9 15 4 15 -5 0 -2 5 6 10 10 6 11 10 3
10 -7 0 -13 12 -13 28 0 15 -6 34 -12 40 -10 10 -10 15 2 22 13 8 13 10 1 10
-8 0 -26 -10 -39 -22 -14 -13 -21 -16 -17 -8 5 8 -9 -4 -31 -27 -34 -35 -46
-42 -76 -41 -19 1 -40 -2 -46 -6 -7 -4 -12 -2 -12 4 0 7 -6 10 -13 7 -9 -3
-13 4 -12 21 0 22 5 27 28 29 16 1 34 7 41 12 7 6 15 8 19 5 5 -6 19 28 16 42
-4 22 2 35 14 28 6 -4 -3 7 -21 25 -18 17 -31 35 -27 40 3 5 1 12 -4 16 -6 3
-8 12 -5 19 6 15 -21 76 -34 77 -4 0 -25 2 -46 4 -22 3 -46 -1 -53 -7 -7 -6
-16 -8 -20 -5 -16 17 -90 -44 -96 -79 -4 -25 -16 -44 -28 -44 -6 0 -7 6 -2 13
4 6 -4 4 -19 -5 -25 -16 -26 -16 -21 2 3 11 14 22 24 25 15 5 46 43 81 100 4
6 -4 12 -19 13 -38 3 -101 61 -102 95 -1 29 8 34 26 16 8 -8 17 -8 29 -1 12 7
23 6 36 -1 13 -9 26 -8 50 0 29 11 31 11 14 -2 -10 -8 -16 -21 -13 -29 8 -20
69 -46 83 -35 6 5 13 7 16 4 3 -3 11 1 18 10 15 18 1 40 -31 50 -18 6 -69 91
-69 115 0 15 30 12 64 -5z m2340 -12 c7 3 18 -5 26 -16 12 -20 12 -21 -4 -8
-16 13 -16 12 -5 -13 8 -17 15 -22 20 -15 5 8 10 5 18 -9 14 -25 4 -55 -16
-48 -8 3 -16 6 -18 6 -2 0 -18 20 -35 45 -27 39 -29 48 -18 67 11 21 13 21 16
5 2 -10 9 -16 16 -14z m-3981 10 c3 -5 -8 -8 -23 -8 -15 0 -26 3 -23 8 2 4 13
7 23 7 10 0 21 -3 23 -7z m5185 -46 c17 -20 11 -68 -7 -65 -16 3 -44 47 -56
86 -7 23 -6 23 22 8 16 -8 35 -21 41 -29z m-683 3 c8 -16 15 -43 15 -60 0 -24
-4 -30 -21 -30 -16 0 -19 3 -11 13 7 8 6 19 -3 37 -17 29 -19 70 -5 70 5 0 16
-13 25 -30z m96 -1 c-5 -13 -10 -19 -10 -12 -1 15 10 45 15 40 3 -2 0 -15 -5
-28z m-4411 17 c0 -2 -8 -10 -17 -17 -16 -13 -17 -12 -4 4 13 16 21 21 21 13z
m550 -4 c0 -5 -9 -19 -20 -32 -21 -24 -27 -12 -10 21 11 19 30 26 30 11z
m1740 -69 c0 -13 -4 -23 -9 -23 -12 0 -21 25 -21 58 0 25 1 25 15 6 8 -10 15
-29 15 -41z m1463 42 c-3 -9 -1 -15 5 -13 5 2 9 -1 9 -7 -2 -9 -26 -9 -36 1
-4 3 18 34 25 34 2 0 1 -7 -3 -15z m-103 -16 c0 -6 -4 -7 -10 -4 -5 3 -10 11
-10 16 0 6 5 7 10 4 6 -3 10 -11 10 -16z m1064 9 c-5 -8 0 -7 11 2 11 9 16 10
11 3 -4 -8 -1 -13 9 -13 12 0 15 -7 13 -27 -3 -31 -22 -36 -52 -17 -15 10 -25
9 -52 -4 -44 -22 -53 -53 -24 -89 20 -26 20 -28 3 -34 -14 -5 -20 0 -26 25 -5
17 -13 39 -18 48 -5 9 -5 19 0 22 4 3 6 20 3 38 l-5 33 21 -25 20 -25 13 27
c6 15 15 25 19 23 4 -2 16 2 26 10 24 18 38 19 28 3z m-5195 -2 c-2 -2 -15 -9
-29 -15 -24 -11 -24 -11 -6 3 16 13 49 24 35 12z m1186 -6 c-3 -5 -12 -10 -18
-10 -7 0 -6 4 3 10 19 12 23 12 15 0z m2873 -19 c5 -35 -10 -44 -44 -26 -16 8
-23 15 -16 15 6 0 12 9 12 21 0 30 44 22 48 -10z m1724 -10 c-3 -22 -11 -35
-24 -39 -11 -3 -21 -17 -25 -33 -6 -33 -33 -62 -33 -35 0 9 -4 16 -9 16 -4 0
-11 -29 -14 -65 -8 -80 -20 -105 -47 -98 -11 3 -20 9 -20 13 0 5 -6 15 -14 23
-11 11 -12 23 -5 53 6 21 14 52 18 69 5 21 23 41 61 67 62 44 70 46 71 16 2
-22 2 -22 6 2 4 19 33 54 39 47 1 -1 -1 -17 -4 -36z m-2912 -11 c11 -21 4 -25
-19 -11 -23 15 -51 -6 -49 -34 3 -30 14 -32 23 -5 10 31 33 23 55 -20 l12 -25
-21 23 c-31 31 -39 28 -51 -20 -6 -24 -15 -56 -20 -72 -6 -16 -10 -37 -10 -47
0 -23 -45 -72 -70 -76 -28 -4 -25 7 14 58 36 47 44 71 52 164 4 33 11 66 16
73 16 19 56 14 68 -8z m1395 10 c-3 -5 -1 -10 6 -10 7 0 10 -3 6 -6 -9 -9 -28
6 -22 17 4 5 8 9 11 9 3 0 2 -4 -1 -10z m459 -75 c1 -52 4 -65 17 -65 8 0 19
4 25 8 5 5 24 15 42 22 28 11 35 10 51 -4 16 -15 25 -16 59 -7 26 7 48 8 63 2
19 -8 20 -10 6 -10 -30 -1 -8 -21 24 -21 50 0 36 -28 -18 -35 -63 -8 -93 -21
-93 -40 0 -12 4 -13 18 -7 9 5 38 12 65 14 36 4 47 2 47 -9 0 -20 -30 -28 -53
-14 -19 12 -19 11 -12 -26 4 -21 8 -39 10 -41 2 -2 21 2 44 8 39 10 40 12 34
43 -3 18 -10 37 -15 43 -5 8 -3 18 7 27 8 9 15 21 15 27 0 6 5 8 10 5 6 -3 10
-16 10 -28 0 -12 9 -51 19 -87 l19 -65 7 65 c9 71 18 62 30 -29 4 -33 3 -51
-4 -51 -6 0 -11 15 -12 33 -1 27 -3 24 -13 -21 -15 -60 -19 -67 -40 -59 -10 4
-13 13 -10 24 5 15 4 15 -4 3 -6 -8 -9 -17 -6 -21 2 -4 -10 -4 -28 2 -31 8
-44 20 -125 113 -27 30 -37 35 -58 30 -14 -3 -23 -10 -20 -14 3 -5 1 -11 -5
-15 -5 -3 -10 0 -10 7 -1 9 -5 7 -14 -5 -12 -15 -15 -10 -26 43 -17 82 -33 88
-24 10 6 -58 6 -62 -13 -58 -11 1 -20 -1 -21 -7 -1 -14 -30 -22 -96 -24 -54
-2 -58 -1 -53 18 3 11 -1 26 -9 32 -8 7 -13 18 -10 26 8 20 -13 24 -69 14 -40
-8 -52 -7 -61 5 -6 8 -17 14 -25 14 -11 0 -11 2 1 10 8 5 36 10 62 10 26 0 50
5 53 11 5 7 -17 8 -76 3 -46 -4 -90 -7 -99 -8 -8 -1 -15 6 -15 14 0 20 94 51
157 52 39 1 46 4 36 15 -6 7 -29 22 -52 32 l-41 18 33 5 c24 3 49 -3 90 -24
31 -15 63 -28 69 -28 7 0 22 20 34 45 21 44 37 62 25 28 -4 -13 -1 -12 12 4
25 31 35 13 36 -62z m724 53 c16 -16 15 -27 0 -24 -19 3 -38 16 -38 27 0 13
24 11 38 -3z m-4448 -12 c0 -3 -4 -8 -10 -11 -5 -3 -10 -1 -10 4 0 6 5 11 10
11 6 0 10 -2 10 -4z m-677 -22 c34 -17 97 -73 97 -86 0 -4 -8 -8 -17 -8 -10 0
-36 -7 -58 -16 -43 -16 -95 -7 -95 17 0 6 6 9 14 6 32 -13 86 -19 86 -10 0 5
-14 19 -30 32 -28 20 -34 50 -7 34 7 -4 6 0 -2 10 -10 13 -18 14 -32 6 -27
-14 -47 0 -24 18 24 17 29 16 68 -3z m4067 3 c0 -7 -17 -21 -37 -30 -24 -11
-31 -12 -21 -4 10 8 15 17 12 20 -10 10 6 27 27 27 10 0 19 -6 19 -13z m-247
-17 c-3 -11 -7 -20 -9 -20 -2 0 -4 9 -4 20 0 11 4 20 9 20 5 0 7 -9 4 -20z
m1074 -17 c-3 -10 -5 -4 -5 12 0 17 2 24 5 18 2 -7 2 -21 0 -30z m-173 -7 c-3
-14 -13 -26 -21 -26 -12 0 -11 5 3 30 21 34 28 33 18 -4z m480 18 c3 -9 6 -23
6 -32 -1 -14 -3 -14 -12 3 -7 11 -13 26 -14 33 -3 18 13 15 20 -4z m248 -9
c-5 -31 -22 -44 -22 -18 0 15 17 43 26 43 1 0 -1 -11 -4 -25z m-4582 -10 c7
-8 10 -26 8 -40 -3 -13 -2 -22 2 -20 5 3 7 -6 6 -20 -1 -27 -16 -35 -16 -9 0
10 -6 14 -14 11 -12 -5 -25 35 -26 81 0 17 25 15 40 -3z m2920 -8 c0 -7 -4
-18 -9 -26 -7 -11 -13 -11 -32 3 l-24 16 23 6 c12 4 22 11 22 16 0 5 5 6 10 3
6 -3 10 -12 10 -18z m189 9 c9 -11 9 -16 -1 -22 -7 -4 -10 -4 -6 1 4 4 3 14
-3 22 -6 7 -9 13 -6 13 2 0 10 -6 16 -14z m1108 -93 c-2 -21 -4 -4 -4 37 0 41
2 58 4 38 2 -21 2 -55 0 -75z m37 22 c9 -43 21 -82 26 -85 5 -3 7 -16 3 -28
-3 -12 -8 -20 -12 -17 -11 6 -7 -39 4 -47 6 -5 3 -8 -6 -8 -9 0 -20 -7 -23
-16 -5 -14 -4 -15 9 -4 22 18 29 6 14 -22 -7 -12 -12 -27 -10 -32 1 -6 -3 -21
-10 -34 -9 -15 -10 -26 -3 -30 6 -4 13 -15 17 -24 3 -10 14 -18 22 -18 9 0 13
-5 9 -11 -3 -6 -18 -9 -32 -6 -18 3 -31 -1 -42 -15 -15 -19 -15 -23 2 -57 l19
-36 -37 -3 c-47 -4 -64 3 -64 26 0 18 -69 82 -89 82 -28 0 -62 25 -58 42 6 23
-7 23 -24 0 -8 -9 -13 -16 -13 -14 5 10 -45 50 -67 54 -27 5 -53 -15 -46 -35
2 -7 -6 -28 -19 -48 -13 -20 -20 -40 -17 -43 4 -3 2 -6 -4 -6 -12 0 -23 46
-24 104 0 32 -2 37 -9 21 -5 -11 -9 -35 -9 -54 -1 -28 -4 -32 -18 -26 -10 4
-30 10 -45 14 -14 3 -50 27 -79 54 -28 26 -54 46 -56 44 -2 -3 14 -35 35 -73
37 -65 42 -70 88 -81 l49 -13 -68 5 c-37 3 -78 10 -91 16 -24 11 -56 67 -56
98 0 24 56 79 97 97 35 15 133 19 133 6 0 -4 16 -14 35 -21 19 -7 35 -15 35
-19 0 -4 15 -7 33 -8 17 -1 46 -5 62 -10 17 -4 53 -8 80 -8 28 -1 54 -7 60
-14 7 -8 24 -10 58 -6 l47 7 0 46 c0 33 -3 42 -10 31 -13 -20 -15 9 -11 173 1
50 4 68 14 64 8 -3 12 -28 11 -83 l-2 -79 18 85 18 85 2 -65 c2 -36 4 -110 5
-165 2 -63 6 -100 14 -103 6 -2 11 0 12 5 1 15 7 41 14 63 5 15 4 20 -4 16 -8
-5 -11 39 -11 155 0 89 2 160 4 158 2 -2 11 -40 20 -84z m-5198 50 c1 -10 -6
-15 -22 -15 -28 0 -31 8 -7 26 20 14 26 11 29 -11z m3787 -12 c-3 -6 -11 -9
-19 -6 -14 5 -19 25 -8 36 9 9 32 -16 27 -30z m-2893 11 c0 -12 -4 -14 -12 -7
-7 6 -20 13 -28 16 -9 3 -3 6 13 6 19 1 27 -4 27 -15z m-651 -1 c-3 -21 2 -33
15 -33 7 0 27 -7 42 -15 16 -8 25 -15 19 -15 -18 0 70 -54 125 -77 30 -12 51
-23 46 -23 -6 0 0 -9 12 -20 16 -15 22 -32 22 -63 l0 -41 -17 24 c-23 33 -71
73 -102 85 -84 33 -108 50 -123 87 -17 40 -37 50 -39 21 0 -10 -5 -3 -11 16
-5 18 -7 40 -4 47 6 15 17 19 15 7z m2377 -35 c-5 -92 -6 -99 -16 -93 -6 4 -8
11 -5 16 4 5 -1 12 -10 15 -27 11 -1 97 31 104 1 0 1 -19 0 -42z m-2316 28 c0
-3 -4 -8 -10 -11 -5 -3 -10 -1 -10 4 0 6 5 11 10 11 6 0 10 -2 10 -4z m497
-18 c-3 -8 -6 -5 -6 6 -1 11 2 17 5 13 3 -3 4 -12 1 -19z m88 -8 c10 -11 16
-22 13 -25 -3 -3 -11 1 -18 10 -7 8 -17 15 -23 15 -5 0 -2 -9 8 -20 10 -11 24
-20 32 -20 29 0 3 -60 -37 -84 l-29 -17 0 28 c1 66 -4 109 -13 121 -18 22 47
14 67 -8z m4354 -35 c0 -5 -4 -3 -9 5 -5 8 -9 22 -9 30 0 16 17 -16 18 -35z
m-3495 19 c9 -8 16 -27 17 -42 0 -15 2 -36 4 -47 6 -28 -12 -89 -33 -115 -14
-17 -24 -21 -42 -15 l-23 7 23 13 c17 9 19 14 9 18 -9 4 -7 6 6 6 17 1 18 3 5
12 -11 8 -12 12 -2 16 6 2 9 10 5 16 -4 6 -7 25 -7 42 -1 27 -4 30 -31 28 -22
-2 -26 0 -15 7 10 6 11 10 3 10 -16 0 -17 32 -1 48 17 17 64 15 82 -4z m-1796
-6 c-3 -7 -14 -14 -26 -16 -16 -3 -20 1 -16 12 7 19 48 22 42 4z m1309 -27
c-22 -40 -37 -45 -37 -11 0 17 34 50 51 50 4 0 -2 -18 -14 -39z m2707 12 c11
-15 20 -31 19 -35 -2 -5 5 -8 16 -8 24 0 73 -25 64 -33 -3 -4 3 -7 15 -7 11 0
27 -3 35 -6 9 -3 17 2 20 13 3 10 4 -2 1 -27 -4 -41 -2 -49 31 -84 35 -37 42
-62 10 -36 -27 23 -33 0 -20 -86 5 -35 4 -54 -4 -58 -6 -4 -11 0 -11 10 0 13
-3 14 -15 4 -17 -14 -20 -46 -5 -55 18 -11 11 -25 -12 -23 -13 0 -40 -2 -60
-7 -23 -4 -38 -3 -38 2 0 5 10 9 21 9 12 -1 24 4 26 11 3 7 -3 11 -15 8 -19
-3 -22 14 -13 82 2 16 68 56 81 48 15 -9 30 3 24 20 -5 13 -10 13 -33 0 -15
-7 -41 -15 -57 -17 -27 -3 -29 -1 -26 30 2 17 -1 32 -7 32 -5 0 -13 15 -16 33
-4 17 -13 35 -19 39 -8 6 -7 8 2 8 6 0 12 7 12 15 0 8 -7 15 -15 15 -9 0 -18
7 -22 16 -5 13 -10 11 -29 -13 -13 -15 -23 -31 -24 -36 0 -4 -12 -26 -27 -50
-26 -42 -44 -38 -23 5 12 25 9 22 -47 -46 -42 -51 -90 -225 -66 -239 7 -4 13
20 17 61 8 81 13 90 57 102 49 14 59 13 59 -12 0 -15 8 -6 26 29 15 28 32 49
38 47 7 -3 16 -38 22 -80 9 -73 8 -76 -18 -116 -16 -22 -28 -48 -28 -57 -1
-29 -29 35 -32 71 -1 28 -6 34 -25 34 -13 0 -23 -5 -24 -10 0 -6 -2 -21 -5
-33 -2 -13 1 -23 6 -23 6 0 10 12 10 28 1 23 3 20 16 -17 19 -55 12 -61 -71
-61 -49 0 -62 4 -72 20 -12 18 -16 18 -50 6 -21 -7 -44 -11 -50 -9 -9 3 -13
-6 -13 -25 0 -27 -6 -32 -57 -52 -32 -13 -64 -28 -70 -33 -9 -7 -13 -5 -13 7
0 23 -15 20 -33 -6 l-16 -23 0 23 c-1 12 2 21 7 21 19 -3 23 2 12 16 -10 12
-10 19 -2 27 18 18 14 26 -15 30 -17 2 -27 10 -29 23 -2 11 -8 21 -14 23 -5 2
-8 8 -4 13 3 5 1 9 -5 9 -5 0 -18 3 -28 6 -16 5 -16 4 -3 -8 30 -25 66 -151
53 -184 -6 -16 -7 -16 -14 2 -9 22 -1 -73 11 -126 7 -30 8 -27 6 22 0 31 2 59
6 63 12 12 49 -16 60 -46 5 -16 17 -29 26 -29 41 0 117 40 152 79 l37 42 -1
-40 c0 -27 -4 -37 -13 -34 -7 3 -13 0 -13 -7 0 -8 10 -9 30 -5 36 8 71 -18 51
-38 -6 -6 -11 -19 -11 -30 0 -10 -4 -15 -10 -12 -5 3 -10 1 -10 -4 0 -17 -21
-13 -36 6 -22 32 -26 6 -5 -36 26 -50 26 -51 -3 -51 -25 0 -51 -10 -96 -35
-13 -8 -26 -12 -29 -10 -8 9 42 45 61 45 25 0 33 25 19 58 -9 19 -9 28 -2 30
18 6 2 22 -23 22 -12 0 -27 5 -32 10 -14 14 -44 2 -44 -16 0 -8 -3 -14 -8 -14
-4 0 -8 -28 -10 -62 -1 -35 -5 -89 -8 -120 -6 -54 -4 -58 14 -58 12 0 24 -4
27 -10 4 -6 -6 -7 -27 -3 -56 12 -80 9 -92 -11 -6 -11 -24 -32 -41 -47 -29
-27 -30 -27 -39 -8 -6 11 -19 19 -35 19 -23 1 -24 2 -8 11 10 6 25 8 34 5 10
-4 27 4 45 21 30 29 35 41 16 40 -45 -1 -78 5 -78 14 0 12 58 8 91 -5 9 -4 26
2 40 14 l24 21 -29 -6 -28 -6 3 81 c3 44 1 80 -3 80 -5 0 -8 -35 -8 -78 l0
-77 -47 2 c-27 1 -56 3 -66 3 -29 2 -14 23 23 33 19 5 41 18 50 30 18 26 20
97 4 97 -11 0 -29 28 -26 41 1 4 -7 5 -18 2 -11 -3 -27 2 -36 12 -9 9 -23 14
-30 11 -7 -3 -16 -1 -19 4 -3 5 -19 7 -35 5 -17 -2 -28 0 -25 5 3 5 1 11 -5
15 -19 12 13 34 35 23 14 -6 13 -3 -5 11 -14 11 -27 16 -31 10 -8 -13 -27 -8
-67 17 -44 29 -72 22 -63 -14 4 -15 18 -32 31 -39 22 -11 21 -12 -31 -39 -30
-16 -61 -29 -70 -30 -8 0 -24 -6 -34 -11 -19 -11 -51 0 -67 22 -12 16 8 28 30
16 15 -8 23 -6 42 14 12 13 19 28 16 34 -4 6 -2 20 4 31 13 24 -2 27 -21 4
-10 -12 -25 -15 -61 -12 -58 6 -66 12 -49 39 14 23 15 22 -17 38 -19 10 -27
10 -40 -2 -13 -11 -23 -12 -42 -5 -24 10 -24 10 -5 19 15 6 10 8 -20 6 -31 -2
-42 -7 -52 -27 -10 -19 -13 -21 -13 -7 0 10 -4 15 -10 12 -5 -3 -10 -21 -10
-38 0 -43 -9 -54 -45 -58 -26 -4 -30 -1 -31 21 -3 63 -4 66 -14 50 -6 -10 -10
-11 -10 -2 0 6 -4 12 -10 12 -5 0 -10 -7 -10 -16 0 -8 -4 -12 -10 -9 -5 3 -10
-2 -10 -12 0 -11 18 -36 41 -57 22 -22 36 -42 31 -45 -4 -3 -12 -15 -16 -26
-6 -16 -9 -17 -17 -5 -8 11 -9 10 -3 -5 5 -11 8 -46 7 -77 l-2 -58 46 0 c39 0
44 3 39 18 -5 15 -4 14 9 -2 17 -22 80 -31 226 -31 60 0 95 -4 93 -10 -4 -10
-186 -12 -214 -2 -11 4 -161 15 -242 17 -5 0 -8 5 -8 11 0 6 8 8 18 5 17 -6
17 -1 6 90 -13 98 -29 154 -45 154 -5 0 -9 -12 -10 -27 0 -25 -1 -26 -9 -8 -5
11 -9 35 -9 53 -1 20 -6 32 -15 32 -12 0 -12 -8 -2 -53 l12 -52 -35 1 c-31 1
-31 1 -6 -3 17 -3 37 -11 46 -19 9 -8 22 -14 29 -12 7 2 14 -5 15 -15 2 -13
-1 -17 -11 -13 -12 5 -12 2 0 -22 15 -29 11 -45 -14 -55 -12 -4 -11 -6 3 -6 9
-1 17 -6 17 -12 0 -5 5 -7 10 -4 18 11 10 -12 -10 -30 -20 -18 -90 -28 -128
-18 -18 4 -42 41 -42 63 0 4 16 7 35 6 19 -2 35 1 35 5 0 5 -4 9 -10 9 -5 0
-10 7 -10 17 0 14 -2 14 -21 -3 -17 -15 -22 -16 -29 -4 -5 8 -6 18 -4 22 11
17 -9 7 -27 -14 -10 -13 -18 -37 -19 -55 0 -40 -35 -110 -63 -125 -37 -19 -60
-46 -54 -62 4 -9 2 -16 -3 -16 -6 0 -10 10 -10 23 0 17 -2 19 -10 7 -14 -23
-21 -7 -10 28 11 39 -3 34 -20 -7 -10 -26 -10 -33 4 -46 21 -22 22 -22 -23
-44 -39 -20 -39 -20 -44 -1 -8 30 -35 14 -43 -24 -3 -18 -11 -33 -17 -33 -8 0
-11 20 -9 64 3 41 0 63 -7 63 -6 0 -12 -10 -12 -22 -1 -13 -3 -30 -4 -38 -1
-8 -3 -21 -4 -29 -1 -11 -4 -11 -17 0 -12 10 -11 5 3 -22 11 -18 24 -33 28
-31 8 3 25 -29 24 -45 0 -4 9 -11 21 -15 14 -5 20 -14 16 -23 -3 -8 -1 -17 5
-20 13 -9 50 5 44 16 -4 5 3 9 13 9 11 0 25 7 32 15 7 9 21 13 31 10 17 -6 19
-1 17 34 -2 49 4 57 26 36 16 -16 24 -91 9 -82 -5 3 -8 -8 -8 -24 0 -33 2 -34
29 -14 10 8 23 12 28 9 5 -3 8 -2 7 3 -4 20 2 24 17 12 14 -11 19 -10 35 9 14
18 24 21 44 16 24 -6 26 -5 17 12 -15 29 6 54 33 39 25 -13 33 -40 10 -31 -9
3 -13 2 -10 -4 9 -14 21 -12 39 5 19 20 48 9 41 -16 -5 -16 -1 -18 32 -17 21
0 44 5 50 11 12 8 54 7 93 -4 8 -2 14 2 12 9 -3 16 9 15 35 -3 12 -9 26 -14
30 -13 4 1 26 -3 48 -9 44 -12 196 -33 289 -39 64 -5 78 -10 57 -23 -10 -6 -8
-10 6 -16 38 -17 -95 -32 -294 -35 -57 0 -103 -5 -103 -11 0 -5 -7 -9 -17 -9
-9 0 -14 2 -11 6 3 3 2 21 -2 40 -6 26 -5 32 3 25 9 -6 13 -1 14 20 1 16 -1
29 -6 29 -13 0 -70 -30 -76 -41 -4 -5 -15 -9 -26 -9 -26 0 -24 -28 4 -41 21
-9 21 -9 -3 -3 -14 3 -40 7 -57 8 -18 0 -33 5 -33 9 0 5 -5 5 -10 2 -8 -5 -8
-11 -1 -19 6 -7 7 -17 3 -21 -4 -5 -1 -5 6 -1 6 4 12 2 12 -5 0 -7 12 -10 33
-6 34 5 60 -3 91 -27 16 -13 17 -18 6 -31 -7 -8 -23 -15 -37 -15 -20 0 -23 4
-18 20 8 24 3 25 -37 4 -28 -15 -30 -15 -25 0 11 29 -42 15 -55 -14 -9 -21
-18 -26 -40 -25 -27 2 -54 15 -30 15 28 0 9 20 -24 26 -26 5 -39 3 -45 -7 -4
-8 -15 -23 -23 -34 -16 -19 -16 -19 -10 6 4 22 1 27 -18 33 -37 9 -48 7 -42
-9 5 -12 -2 -15 -35 -15 -32 0 -39 3 -35 15 4 9 0 15 -10 15 -21 0 -20 19 2
28 17 7 27 42 11 42 -5 0 -9 5 -9 10 0 6 7 10 15 10 8 0 15 4 15 8 0 4 -12 8
-27 7 -21 0 -27 -5 -25 -18 2 -10 -3 -17 -13 -17 -10 0 -19 -9 -22 -20 -3 -11
-11 -20 -19 -20 -7 0 -17 -6 -21 -13 -8 -12 -67 -57 -75 -57 -3 0 -5 7 -5 15
0 8 3 12 7 10 13 -8 39 30 30 44 -6 11 -13 10 -35 -8 -15 -11 -38 -21 -50 -21
-12 0 -28 -7 -35 -15 -16 -19 -57 -20 -57 -1 0 8 10 13 25 12 15 -1 30 8 39
21 14 21 14 23 -1 23 -9 0 -24 -8 -34 -18 -10 -10 -24 -16 -30 -14 -7 2 -12
-3 -12 -11 0 -8 -7 -20 -15 -27 -12 -10 -18 -9 -32 5 -16 17 -15 18 10 37 36
26 34 36 -8 44 -19 3 -35 11 -35 16 0 6 10 8 21 5 16 -4 19 -3 11 5 -12 12
-76 -8 -68 -21 3 -4 -3 -7 -12 -8 -19 -1 -79 -17 -103 -27 -12 -5 -18 -1 -22
15 -4 16 -10 20 -24 14 -10 -4 -29 -10 -43 -12 -14 -2 -35 -9 -46 -15 -15 -7
-28 -7 -42 1 -28 15 -33 14 -30 -6 2 -10 -4 -19 -14 -21 -10 -2 -18 2 -18 8 0
6 6 8 13 5 6 -4 3 0 -7 9 -10 8 -23 13 -27 10 -5 -3 -6 2 -3 10 5 12 -1 16
-22 16 l-28 0 32 -29 c30 -28 31 -30 11 -36 -15 -5 -25 -1 -35 13 -7 11 -24
20 -38 19 -22 0 -23 -2 -13 -18 7 -11 19 -19 27 -20 15 -1 -24 -16 -47 -18
-13 -1 -43 26 -43 40 0 5 6 9 14 9 8 0 17 4 20 9 3 4 -12 6 -34 4 -32 -4 -40
-2 -40 11 0 13 -4 15 -19 6 -27 -14 -31 -13 -31 10 0 17 -7 20 -57 22 -90 3
-98 4 -111 12 -8 5 -12 1 -12 -12 0 -21 54 -95 62 -86 3 3 8 -2 12 -11 4 -13
1 -16 -17 -14 -12 2 -27 0 -34 -4 -7 -5 -9 0 -6 14 5 16 2 20 -8 17 -8 -3 -13
-11 -11 -17 3 -17 -5 -13 -28 11 -11 12 -20 30 -20 40 0 10 -7 18 -17 18 -14
0 -15 2 -4 9 9 6 10 11 2 15 -6 4 -16 4 -21 1 -14 -9 -12 -32 3 -38 6 -3 -5
-6 -26 -6 -21 -1 -36 3 -33 8 8 12 -64 4 -139 -16 -62 -16 -81 -20 -127 -22
-18 -1 -28 -7 -28 -16 0 -10 -10 -15 -31 -15 -38 0 -69 -16 -69 -35 0 -10 -11
-15 -35 -15 -41 0 -42 3 -13 30 27 25 21 31 -35 37 l-44 5 -21 -88 c-11 -49
-28 -123 -37 -164 -19 -82 -34 -120 -47 -120 -4 0 -4 8 2 18 5 9 16 51 24 92
7 41 19 89 24 105 6 17 16 62 22 100 7 39 13 77 14 85 3 16 22 87 37 136 5 17
9 40 9 52 0 11 5 24 10 27 6 4 8 10 6 14 -5 8 41 178 55 201 19 33 8 -56 -17
-136 -33 -108 -73 -285 -67 -301 3 -7 10 -10 16 -6 6 4 26 7 44 6 19 0 36 4
39 8 3 5 9 7 14 4 5 -3 19 8 32 25 23 31 23 31 28 8 8 -32 53 -47 78 -25 10 9
22 14 25 10 4 -3 7 1 7 9 0 21 27 43 32 27 7 -20 37 -2 49 28 10 26 12 26 19
8 7 -19 7 -19 18 2 7 12 12 31 12 42 0 12 5 21 10 21 17 0 24 -31 12 -51 -18
-28 -15 -34 18 -35 16 -1 27 3 24 7 -2 5 4 17 15 28 13 13 23 16 27 10 5 -8 9
-8 13 0 4 6 19 12 33 13 15 1 26 5 26 8 -1 18 3 23 11 11 7 -11 13 -10 34 4
15 9 31 14 37 10 5 -3 10 -2 10 3 0 10 70 8 114 -4 21 -5 27 -4 22 5 -10 16 3
14 20 -4 9 -8 26 -15 40 -15 18 0 24 6 25 23 1 21 1 21 9 -3 8 -24 8 -24 9 -3
1 19 4 21 24 14 22 -8 23 -7 19 15 -2 13 -8 22 -12 19 -4 -3 -13 1 -19 9 -9
11 -6 13 14 11 14 -2 25 0 25 3 -2 17 -69 135 -70 122 0 -10 -5 -7 -13 8 -7
12 -17 19 -21 15 -5 -4 -3 3 3 15 7 13 10 26 7 30 -3 3 -6 -1 -6 -9 0 -11 -2
-11 -10 1 -13 20 -13 33 0 25 6 -3 7 1 4 9 -3 9 -10 14 -14 11 -5 -3 -12 0
-16 6 -5 8 -3 9 6 4 8 -5 11 -3 9 4 -3 7 -8 11 -13 9 -11 -4 -38 50 -31 62 3
6 1 10 -5 10 -6 0 -8 5 -5 10 3 6 2 10 -3 10 -8 0 -16 17 -58 120 -13 32 -13
33 1 15 9 -11 39 -63 67 -115 60 -112 117 -200 129 -200 5 0 8 -4 7 -8 -4 -12
59 -82 66 -75 3 4 6 -1 6 -10 0 -15 19 -23 35 -14 10 5 34 -40 40 -76 4 -20
12 -37 17 -37 5 0 7 8 3 19 -3 12 0 21 10 24 11 5 14 0 12 -16 -2 -20 3 -22
46 -23 44 -2 47 0 41 20 -4 11 -10 22 -14 24 -3 1 -4 17 -2 35 5 30 4 31 -13
17 -17 -14 -17 -14 -4 8 12 19 12 28 -4 70 -10 26 -20 63 -22 82 -3 19 -18 94
-36 165 -17 72 -36 156 -41 187 l-11 57 -28 -14 c-15 -8 -30 -11 -33 -6 -3 5
8 11 25 15 36 7 37 39 1 44 -28 4 -29 22 -1 22 18 0 20 4 15 26 -18 70 -15 84
6 29 21 -55 26 -60 56 -63 40 -4 42 -20 3 -24 l-29 -3 58 -187 c54 -172 79
-239 80 -212 0 6 10 10 22 10 27 -1 30 16 11 63 -12 30 -11 37 2 50 13 14 15
13 15 -4 0 -11 10 -57 21 -103 17 -67 19 -88 10 -108 -9 -21 -8 -30 8 -49 10
-14 21 -21 25 -17 4 3 4 -1 0 -11 -3 -9 0 -24 7 -33 12 -14 14 -14 20 3 9 25
-1 107 -13 114 -6 4 -8 14 -5 24 4 9 11 13 17 10 6 -4 8 -10 6 -14 -6 -10 21
-102 34 -115 7 -7 10 -2 10 12 0 12 4 22 10 22 5 0 7 -7 4 -15 -4 -9 0 -15 9
-15 8 0 22 -10 30 -22 13 -19 13 -16 -1 22 -26 69 -42 92 -58 86 -19 -7 -18 8
1 24 18 15 20 46 4 56 -8 5 -10 -1 -5 -19 4 -17 2 -24 -7 -23 -27 6 -47 19
-47 31 0 13 28 30 43 27 4 -1 7 3 7 9 0 6 -8 8 -20 4 -31 -10 -69 22 -76 63
-4 21 -11 42 -15 48 -12 15 -1 44 17 44 8 0 14 -7 14 -16 0 -9 8 -14 18 -13
34 3 42 -1 42 -23 0 -28 69 -170 69 -145 1 13 6 17 20 12 13 -4 23 0 30 12 6
10 11 12 11 6 0 -9 7 -10 26 -3 30 12 59 -6 93 -57 22 -35 46 -45 33 -15 -20
47 -51 84 -89 108 -46 29 -52 39 -29 47 11 4 13 1 9 -10 -4 -11 -2 -14 5 -9 7
4 34 -14 67 -45 47 -44 57 -50 70 -39 9 7 14 19 11 27 -9 22 12 63 28 57 22
-8 30 15 11 36 -19 21 -3 39 20 20 13 -11 13 -22 0 -90 -6 -33 -6 -34 9 -16 9
11 16 26 16 33 0 7 5 13 10 13 6 0 10 -4 10 -10 0 -5 7 -10 15 -10 8 0 15 -6
16 -12 0 -7 4 -3 9 10 10 22 30 31 30 11 0 -5 5 -7 10 -4 6 3 10 16 10 28 0
17 -2 19 -9 8 -5 -8 -16 -11 -26 -7 -15 5 -15 7 -1 22 9 8 16 21 16 27 0 16
-38 39 -50 32 -18 -11 -10 12 18 51 28 40 62 105 62 121 0 5 16 32 35 61 19
29 32 59 29 66 -3 7 1 20 9 28 21 21 59 98 54 111 -2 6 14 46 35 89 27 56 45
81 64 88 14 6 30 7 36 4 13 -8 59 16 52 28 -3 5 -2 8 3 7 4 -1 21 -1 37 0 21
1 27 5 22 17 -3 8 1 23 10 31 14 15 15 13 12 -18 -3 -33 -2 -34 32 -36 33 -1
34 -1 6 5 -17 4 -29 10 -28 15 1 4 2 12 2 18 0 8 6 7 17 -2 15 -13 15 -12 5 8
-16 29 -15 43 3 43 8 0 15 -8 15 -18 0 -23 35 -56 49 -48 5 4 13 1 16 -4 7
-12 64 -4 80 11 5 5 19 9 30 9 12 0 30 9 39 19 12 13 28 19 46 16 28 -3 74
-24 56 -25 -6 0 -1 -7 10 -15 16 -12 17 -16 4 -24 -12 -9 -12 -11 3 -17 11 -4
25 0 36 10 22 20 31 20 31 2 0 -10 10 -14 35 -11 23 2 33 -1 28 -8 -3 -5 -1
-7 5 -3 6 3 29 0 51 -8 46 -15 57 -5 34 31 -13 19 -12 21 4 18 10 -2 22 -4 27
-4 4 -1 6 -7 3 -15 -3 -8 2 -16 14 -19 10 -3 22 -13 26 -24 5 -10 14 -18 22
-18 7 0 20 -18 29 -40 18 -46 30 -57 54 -51 10 2 21 -1 25 -6 3 -7 1 -8 -5 -4
-7 4 -12 2 -12 -3 0 -6 8 -11 18 -12 10 0 12 -3 5 -6 -20 -8 -15 -23 7 -23 11
0 20 5 20 11 0 14 42 7 47 -8 2 -6 -5 -13 -16 -15 -17 -3 -14 -8 21 -38 23
-19 39 -29 34 -22 -4 7 -3 12 2 12 17 0 32 -27 42 -71 l9 -44 -4 51 -4 52 40
-5 c33 -5 38 -3 33 10 -3 9 -18 18 -33 22 -17 4 -27 13 -28 25 -1 11 1 20 3
20 13 0 51 -24 65 -42 15 -20 16 -19 27 23 6 24 20 62 31 84 11 22 15 42 10
43 -5 2 -7 8 -3 13 3 5 1 9 -5 9 -13 0 -38 -48 -51 -97 -9 -36 -9 -36 -5 12 6
58 42 117 88 145 18 11 35 20 38 20 15 0 28 -54 22 -95 -7 -55 1 -58 22 -7 29
69 64 110 100 116 18 4 38 13 45 21 15 18 14 18 -27 6 l-31 -9 30 51 c16 29
34 57 39 63 5 6 6 14 2 17 -3 4 -1 7 6 7 7 0 23 -12 35 -27z m904 -63 c0 -22
-1 -22 -8 5 -4 17 -8 41 -8 55 0 22 1 22 8 -5 4 -16 8 -41 8 -55z m-3416 38
c-8 -8 -9 -4 -5 13 4 13 8 18 11 10 2 -7 -1 -18 -6 -23z m3491 12 c10 -12 9
-12 -3 -5 -9 6 -4 0 10 -13 20 -18 22 -24 11 -31 -8 -5 -11 -16 -8 -26 4 -10
3 -14 -4 -9 -8 4 -9 -4 -5 -27 l6 -34 -14 35 c-18 44 -19 61 -5 58 6 -2 14 3
16 11 4 9 0 11 -16 6 -11 -3 -21 -3 -21 2 0 4 -3 18 -6 30 -4 16 -2 21 10 19
9 -1 22 -8 29 -16z m-3868 -18 c-7 -8 -35 7 -35 18 0 6 7 6 20 -2 10 -7 17
-14 15 -16z m4225 24 c0 -3 -4 -8 -10 -11 -5 -3 -10 -1 -10 4 0 6 5 11 10 11
6 0 10 -2 10 -4z m150 -31 c0 -25 -4 -35 -16 -35 -11 0 -14 5 -10 16 3 9 6 24
6 35 0 10 5 19 10 19 6 0 10 -16 10 -35z m-5490 -44 c25 -20 25 -20 2 -16 -30
5 -43 15 -37 26 4 5 -4 9 -15 9 -16 0 -20 -5 -16 -15 3 -8 1 -15 -4 -15 -6 0
-10 -9 -10 -20 0 -11 -4 -20 -10 -20 -5 0 -9 11 -8 25 1 14 6 25 10 25 4 0 8
13 8 28 0 41 11 46 34 18 12 -14 32 -34 46 -45z m40 53 c0 -2 -7 -4 -15 -4 -8
0 -15 4 -15 10 0 5 7 7 15 4 8 -4 15 -8 15 -10z m143 4 c3 -10 7 -10 20 1 10
7 17 9 17 4 0 -11 -58 -69 -63 -62 -2 2 -14 19 -26 37 l-22 32 34 0 c20 0 37
-6 40 -12z m889 -5 c26 -31 29 -41 11 -39 -9 2 -18 11 -19 21 -1 10 -9 22 -16
26 -7 5 -8 9 -2 9 6 0 18 -8 26 -17z m4025 -45 c-2 -13 -4 -3 -4 22 0 25 2 35
4 23 2 -13 2 -33 0 -45z m445 38 c7 -14 17 -25 23 -25 5 0 11 -4 13 -10 6 -17
-35 -13 -52 5 -18 17 -22 54 -6 54 5 0 15 -11 22 -24z m-5477 -6 c3 -5 1 -10
-4 -10 -6 0 -11 5 -11 10 0 6 2 10 4 10 3 0 8 -4 11 -10z m5271 -35 c-14 -55
-27 -70 -24 -27 1 18 6 32 11 32 5 0 4 6 -2 14 -9 11 -9 15 1 19 24 10 25 7
14 -38z m-4286 15 c0 -5 -4 -10 -10 -10 -5 0 -10 5 -10 10 0 6 5 10 10 10 6 0
10 -4 10 -10z m680 -15 c0 -6 -6 -19 -13 -30 -13 -17 -15 -17 -30 6 -23 32
-22 34 13 35 17 1 30 -4 30 -11z m3346 -91 c-3 -8 -11 -14 -18 -14 -10 0 -10
2 0 9 8 4 13 14 12 22 -1 8 -1 32 1 54 3 39 3 39 6 -9 2 -27 2 -55 -1 -62z
m-4327 79 c13 -9 38 -17 55 -19 17 -1 32 -6 34 -12 1 -5 12 -7 24 -4 21 5 21
5 2 -15 -14 -15 -24 -17 -37 -11 -27 14 -30 5 -13 -36 8 -20 11 -36 6 -36 -9
0 -30 54 -30 80 0 14 -47 44 -100 63 -9 3 -5 6 10 6 14 1 36 -6 49 -16z m-615
-4 c7 -8 -13 -49 -25 -49 -6 0 -8 7 -5 16 4 11 -1 18 -14 21 -31 8 -24 21 10
19 16 -1 31 -4 34 -7z m493 -19 c12 -10 20 -20 17 -22 -2 -3 7 -13 21 -22 14
-9 25 -12 25 -7 0 5 -5 13 -10 16 -6 4 -8 10 -5 15 3 5 -5 16 -17 24 l-22 16
28 0 c16 0 26 -3 23 -6 -8 -8 18 -45 77 -108 49 -52 57 -78 9 -30 -15 16 -38
29 -51 30 -20 1 -21 -1 -8 -20 14 -23 26 -86 16 -86 -4 0 -12 17 -18 39 -13
41 -42 76 -42 50 0 -8 -9 0 -20 16 l-21 30 6 -30 c5 -20 4 -26 -3 -17 -5 8
-12 13 -16 13 -21 -3 -26 1 -26 22 0 12 -9 40 -20 62 -11 22 -20 40 -20 41 0
7 60 -13 77 -26z m3367 4 c3 -8 2 -12 -4 -9 -6 3 -10 10 -10 16 0 14 7 11 14
-7z m-217 -9 c0 -8 -4 -15 -9 -15 -10 0 -11 14 -1 23 9 10 10 9 10 -8z m1847
-51 c14 -31 26 -64 26 -73 1 -9 7 -33 14 -54 9 -25 10 -39 3 -44 -5 -3 -7 -2
-4 3 3 5 -3 20 -12 33 -15 20 -21 22 -39 12 -21 -11 -31 -41 -13 -41 14 0 32
26 23 35 -4 5 -1 5 6 1 7 -4 10 -11 7 -16 -3 -4 1 -11 7 -14 7 -3 4 -4 -7 -3
-15 1 -19 -3 -17 -20 2 -12 -2 -25 -9 -29 -7 -4 -9 -3 -6 3 7 11 -19 53 -34
53 -5 0 -9 -6 -9 -13 0 -9 -12 -14 -32 -15 -23 -1 -28 2 -18 8 19 12 13 12
-28 1 -28 -8 -40 -3 -29 13 4 7 -53 48 -71 50 -9 2 -19 13 -21 27 -1 13 -8 28
-15 32 -6 4 23 5 64 1 43 -4 78 -12 82 -19 4 -7 19 -16 33 -19 14 -4 25 -12
26 -19 0 -6 4 -3 9 8 7 17 9 17 9 3 1 -18 21 -26 21 -9 0 6 9 8 20 6 20 -4 20
-4 0 23 -22 30 -41 150 -22 138 6 -3 22 -32 36 -62z m-5584 49 c0 -5 -5 -15
-10 -23 -8 -12 -10 -11 -10 8 0 12 5 22 10 22 6 0 10 -3 10 -7z m3497 -10 c32
-15 54 -47 52 -76 0 -7 -3 -5 -6 3 -16 41 -44 69 -66 64 -73 -16 -101 -9 -59
15 24 14 39 13 79 -6z m-1067 -19 c0 -11 -5 -14 -16 -10 -9 3 -20 6 -25 6 -5
0 -9 5 -9 10 0 6 11 10 25 10 16 0 25 -6 25 -16z m1760 12 c0 -3 -4 -8 -10
-11 -5 -3 -10 -1 -10 4 0 6 5 11 10 11 6 0 10 -2 10 -4z m1065 -75 c-2 -71 -8
-91 -27 -91 -22 0 5 155 28 160 0 0 0 -31 -1 -69z m-1766 50 c8 -5 20 -31 27
-56 9 -39 9 -52 -3 -77 -8 -16 -13 -38 -10 -50 13 -49 -22 -65 -49 -22 -16 24
-16 26 6 41 17 12 19 17 9 24 -11 7 -12 12 -1 29 10 16 10 20 0 20 -9 0 -14
18 -15 50 -2 51 6 60 36 41z m434 -4 c7 4 8 0 4 -11 -4 -10 -7 -22 -7 -27 0
-5 -11 -9 -25 -9 l-26 0 17 33 c10 17 19 26 21 19 3 -6 10 -9 16 -5z m24 -9
c-3 -8 -6 -5 -6 6 -1 11 2 17 5 13 3 -3 4 -12 1 -19z m-2407 -48 c10 -5 21
-23 25 -40 7 -33 -12 -103 -26 -95 -5 4 -6 -1 -3 -9 3 -9 1 -16 -6 -16 -6 0
-9 -4 -6 -9 3 -5 -1 -14 -8 -20 -10 -8 -16 -9 -21 -1 -3 6 -11 8 -16 5 -15
-10 -49 5 -49 21 0 8 10 14 25 14 14 0 25 4 25 8 0 5 -14 6 -31 4 -24 -4 -30
-1 -27 9 3 8 18 14 36 14 36 0 44 23 16 46 -15 12 -16 11 -10 -9 6 -18 4 -22
-13 -22 -12 0 -24 0 -28 -1 -20 -1 -11 29 12 41 14 7 25 17 25 22 0 11 -48 10
-52 -2 -2 -6 -8 -6 -18 0 -13 8 -13 10 2 10 10 0 31 13 48 30 31 31 43 31 100
0z m-1503 -55 c4 -1 -106 -115 -112 -115 -3 0 12 22 34 48 47 55 50 72 19 91
-20 12 -24 10 -57 -30 -69 -83 -79 -94 -85 -88 -3 3 23 39 57 81 l62 75 40
-30 c22 -17 41 -31 42 -32z m1663 55 c0 -5 -5 -10 -11 -10 -5 0 -7 5 -4 10 3
6 8 10 11 10 2 0 4 -4 4 -10z m3834 -5 c3 -8 1 -15 -4 -15 -6 0 -10 7 -10 15
0 8 2 15 4 15 2 0 6 -7 10 -15z m-249 -6 c11 -16 1 -19 -13 -3 -7 8 -8 14 -3
14 5 0 13 -5 16 -11z m-1035 -18 c0 -5 -7 -14 -15 -21 -16 -14 -18 -10 -9 14
6 17 24 22 24 7z m-2579 -66 c17 -36 33 -65 35 -65 8 0 -19 69 -36 92 -14 19
-16 26 -5 22 8 -3 17 -14 20 -25 4 -10 13 -19 20 -19 14 0 30 -44 38 -105 2
-16 5 -3 6 30 1 36 5 55 10 47 4 -7 6 -24 4 -36 -3 -13 0 -27 6 -31 6 -3 11
-3 10 2 -4 22 3 25 21 8 11 -10 17 -22 13 -27 -3 -6 1 -14 8 -19 9 -6 3 -7
-17 -3 -30 6 -31 5 -26 -26 3 -23 1 -31 -7 -26 -6 4 -11 4 -10 -1 1 -4 0 -15
-1 -23 -2 -8 -6 5 -10 30 l-7 45 -1 -40 c-1 -23 -7 -46 -13 -52 -6 -6 -8 -17
-3 -24 5 -9 9 -8 15 7 7 18 8 18 8 -1 1 -27 -22 -55 -45 -55 -13 0 -15 3 -7 8
7 5 -12 8 -42 8 -30 -1 -55 -4 -55 -8 0 -15 43 -29 68 -24 18 5 22 4 13 -3
-11 -7 -9 -10 8 -16 11 -3 26 -3 33 1 10 5 10 4 1 -6 -9 -10 -8 -18 4 -37 14
-21 14 -23 -1 -17 -11 4 -16 1 -16 -10 0 -9 -6 -15 -12 -14 -7 2 -12 -3 -10
-10 1 -8 -1 -12 -5 -10 -48 23 -63 34 -73 53 -14 26 -56 48 -73 39 -7 -4 -9
-4 -5 1 12 12 -18 35 -41 30 -28 -5 -27 1 7 30 15 13 21 25 14 25 -7 0 -10 5
-6 11 3 6 14 9 24 6 12 -3 20 2 23 15 4 15 11 18 26 13 11 -3 28 -2 38 4 15 8
12 12 -22 28 -40 18 -58 33 -50 42 3 2 11 -1 18 -8 8 -6 23 -8 33 -4 16 6 14
8 -11 19 -20 9 -24 13 -12 14 11 0 15 4 11 12 -7 11 4 10 51 -7 19 -6 19 -6 1
9 -10 8 -24 17 -30 19 -6 2 -8 8 -4 12 4 4 16 2 25 -6 16 -13 17 -12 5 3 -14
17 -8 43 8 33 4 -3 6 4 3 15 -3 11 -9 23 -14 26 -12 7 -11 64 0 64 6 0 24 -29
42 -65z m-416 35 c3 -5 1 -10 -4 -10 -6 0 -11 5 -11 10 0 6 2 10 4 10 3 0 8
-4 11 -10z m-479 -119 c4 -23 8 -30 14 -21 6 10 11 8 19 -9 7 -11 19 -21 27
-21 8 0 13 4 10 8 -2 4 4 9 15 9 24 2 37 -23 20 -40 -15 -15 -14 -36 4 -71 19
-35 37 -321 23 -349 -7 -13 -5 -26 7 -43 8 -13 11 -24 6 -24 -5 0 -13 5 -16
10 -3 6 -14 10 -24 10 -15 0 -20 10 -24 53 -3 28 -8 62 -10 74 -4 13 0 24 9
27 11 4 14 21 13 61 -1 31 -6 58 -11 61 -5 3 -6 24 -3 47 5 35 3 44 -14 54
-17 11 -22 10 -30 -5 -6 -9 -11 -12 -11 -5 0 6 16 32 35 57 47 62 44 68 -7 18
-41 -41 -74 -59 -47 -25 11 13 11 17 1 20 -6 3 -10 9 -6 14 3 5 0 9 -5 9 -6 0
-11 -8 -12 -17 0 -12 -2 -13 -6 -5 -7 18 18 47 27 31 8 -11 30 -4 30 9 0 4
-13 13 -30 19 -28 11 -30 14 -30 66 0 70 14 110 18 52 1 -22 5 -55 8 -74z
m4524 101 c0 -5 -7 -17 -15 -28 -12 -15 -16 -16 -23 -6 -5 8 -12 13 -16 12 -4
-1 -12 1 -19 3 -6 3 0 6 16 6 15 1 27 6 27 11 0 6 7 10 15 10 8 0 15 -4 15 -8z
m-4423 -44 c-3 -8 -6 -5 -6 6 -1 11 2 17 5 13 3 -3 4 -12 1 -19z m975 -6 c-18
-18 -56 -27 -46 -10 3 4 12 8 20 8 8 0 14 5 14 10 0 6 7 10 15 10 12 0 11 -4
-3 -18z m147 -24 c-12 -20 -14 -21 -17 -5 -2 10 2 25 9 34 18 21 23 0 8 -29z
m3405 27 c7 -20 -20 -31 -38 -16 -11 9 -15 9 -19 -1 -3 -7 -6 -3 -6 10 -1 18
4 22 28 22 17 0 31 -6 35 -15z m48 -47 c-18 -18 -33 1 -21 24 11 20 12 20 21
4 7 -12 7 -21 0 -28z m-3517 11 c4 -11 4 -23 1 -27 -8 -7 -36 30 -30 40 9 14
23 8 29 -13z m2926 4 c12 -14 12 -16 0 -8 -11 6 -13 4 -8 -9 6 -14 4 -15 -15
-5 -18 10 -20 9 -15 -5 5 -12 0 -16 -17 -16 l-24 0 26 30 c31 35 35 36 53 13z
m554 -23 c17 -14 21 -70 4 -70 -5 0 -7 5 -4 10 3 6 -1 10 -11 10 -12 0 -15 6
-11 27 l5 27 -19 -25 c-10 -13 -19 -30 -19 -37 0 -7 -5 -10 -10 -7 -6 4 -10
24 -8 45 2 37 4 39 30 36 15 -2 35 -9 43 -16z m-3412 -7 c2 -5 1 -19 -4 -33
-4 -14 -8 -19 -9 -12 -1 6 -3 15 -4 20 -1 4 -5 13 -9 20 -5 7 -3 12 7 12 8 0
17 -3 19 -7z m3559 -10 c6 -24 -1 -45 -13 -37 -6 3 -19 -2 -30 -12 -22 -20
-26 -5 -8 29 21 38 44 47 51 20z m-4834 -22 c3 -8 -1 -12 -9 -9 -7 2 -15 10
-17 17 -3 8 1 12 9 9 7 -2 15 -10 17 -17z m739 -10 c16 -25 8 -31 -33 -24 -22
4 -34 2 -34 -6 0 -6 -4 -11 -10 -11 -5 0 -10 7 -10 15 0 14 17 20 47 16 8 -1
10 5 7 14 -9 22 19 19 33 -4z m3593 9 c0 -5 -5 -10 -11 -10 -5 0 -7 5 -4 10 3
6 8 10 11 10 2 0 4 -4 4 -10z m-3251 -47 c-9 -11 -8 -17 7 -28 12 -9 14 -14 6
-15 -9 0 -10 -5 -3 -19 9 -16 8 -18 -7 -15 -18 5 -47 54 -31 54 5 0 9 14 9 31
0 27 2 30 15 19 12 -10 13 -16 4 -27z m2997 24 c8 3 14 0 14 -7 0 -6 5 -8 10
-5 14 9 12 -18 -3 -39 -12 -16 -14 -16 -26 -2 -11 13 -11 16 0 16 7 0 3 11
-12 28 -13 15 -18 22 -10 15 7 -6 20 -9 27 -6z m424 5 c0 -5 -7 -9 -15 -9 -8
0 -12 4 -9 9 3 4 9 8 15 8 5 0 9 -4 9 -8z m-4290 -27 c19 -23 8 -25 -14 -4
-11 11 -15 19 -9 19 6 0 16 -7 23 -15z m4660 -68 c12 -38 4 -63 -15 -49 -18
13 -44 80 -38 100 5 20 6 20 23 4 9 -9 23 -34 30 -55z m-4844 -122 c-9 -26
-36 140 -27 170 3 11 11 -20 18 -70 7 -49 11 -94 9 -100z m689 175 c3 -6 -1
-7 -9 -4 -18 7 -21 14 -7 14 6 0 13 -4 16 -10z m2705 0 c0 -5 -14 -11 -30 -15
-17 -4 -27 -11 -24 -16 9 -14 -15 -39 -32 -32 -21 8 -17 -21 6 -42 28 -25 27
-65 -1 -60 -18 4 -19 2 -7 -12 12 -15 11 -15 -8 -5 -27 14 -38 5 -19 -15 25
-25 18 -36 -20 -30 -38 6 -48 -7 -13 -19 l21 -6 -21 -17 c-12 -9 -26 -27 -32
-41 -9 -21 -10 -22 -6 -3 4 21 3 21 -19 7 -20 -13 -23 -13 -29 2 -4 9 -1 33 5
52 9 26 8 39 -1 58 -14 25 -42 42 -34 20 4 -10 -2 -12 -19 -9 -16 3 -36 -3
-55 -17 -17 -12 -36 -20 -44 -18 -8 3 0 12 20 22 45 23 33 33 -13 11 -38 -18
-61 -14 -27 4 14 7 18 17 15 31 -4 14 0 20 11 20 13 0 16 11 16 60 0 53 2 60
20 60 11 0 26 -12 35 -30 19 -37 19 -50 -2 -66 -16 -11 -16 -14 -3 -28 13 -13
22 -9 78 34 35 26 79 51 98 54 19 4 34 11 34 16 0 5 12 16 27 23 29 16 73 19
73 7z m-3985 -18 c-3 -3 -11 0 -18 7 -9 10 -8 11 6 5 10 -3 15 -9 12 -12z
m1912 12 c-3 -3 -12 -4 -19 -1 -8 3 -5 6 6 6 11 1 17 -2 13 -5z m1801 -27 c4
-29 -12 -37 -22 -11 -10 26 -7 46 7 42 6 -3 13 -17 15 -31z m1182 26 c-1 -18
-18 -35 -24 -24 -4 6 -4 16 -1 21 7 12 25 13 25 3z m437 -58 c1 -53 -1 -63
-13 -58 -9 3 -13 12 -9 21 3 8 0 19 -7 23 -10 6 -9 16 5 43 9 20 18 36 19 36
2 0 4 -29 5 -65z m-3563 36 c3 -5 -2 -11 -12 -13 -11 -3 -19 0 -19 8 0 16 23
19 31 5z m-1229 -62 c6 -53 3 -81 -9 -68 -7 8 -12 129 -5 129 4 0 10 -27 14
-61z m289 29 c14 -18 23 -34 20 -37 -5 -5 -63 51 -64 62 0 17 20 5 44 -25z
m476 22 c0 -5 -5 -10 -11 -10 -5 0 -7 5 -4 10 3 6 8 10 11 10 2 0 4 -4 4 -10z
m417 -5 c0 -8 -4 -12 -9 -9 -5 3 -6 10 -3 15 9 13 12 11 12 -6z m2983 11 c0
-2 -7 -6 -15 -10 -8 -3 -15 -1 -15 4 0 6 7 10 15 10 8 0 15 -2 15 -4z m545
-51 l30 -27 -47 26 c-26 14 -57 26 -70 27 -23 1 -23 1 2 8 28 9 42 3 85 -34z
m-4819 20 c-3 -8 0 -15 7 -16 8 0 7 -2 -2 -6 -11 -4 -11 -7 0 -14 7 -4 10 -11
6 -16 -10 -9 -28 18 -20 30 3 4 -3 7 -12 5 -10 -2 -20 2 -22 9 -2 6 6 13 19
16 13 2 25 5 27 6 2 0 1 -6 -3 -14z m612 8 c-10 -2 -26 -2 -35 0 -10 3 -2 5
17 5 19 0 27 -2 18 -5z m2392 -9 c0 -3 -5 -14 -10 -25 -8 -15 -7 -19 5 -19 8
0 15 5 15 11 0 5 4 8 9 5 5 -4 21 -2 35 4 14 5 26 6 26 1 0 -4 -18 -13 -40
-20 -22 -6 -40 -15 -40 -19 0 -4 -11 -9 -24 -10 -13 -1 -41 -12 -62 -24 -21
-12 -34 -16 -30 -9 7 10 3 11 -14 6 l-22 -7 21 21 c12 12 21 30 21 40 0 12 13
24 38 34 38 16 72 21 72 11z m-3496 -38 c10 -16 13 -25 7 -22 -6 4 -11 2 -11
-4 0 -6 -5 -8 -11 -4 -6 3 -9 15 -6 25 3 11 1 19 -5 19 -5 0 -6 5 -3 11 4 6 8
9 9 7 1 -2 10 -16 20 -32z m180 25 c3 -4 -6 -6 -19 -3 -14 2 -25 6 -25 8 0 8
39 4 44 -5z m1659 -34 c3 -36 -11 -38 -31 -4 -15 24 -15 29 -2 37 19 12 30 0
33 -33z m-1607 13 c0 -11 -1 -20 -2 -20 0 0 -9 9 -19 20 -18 19 -17 20 1 20
13 0 20 -7 20 -20z m38 -20 c10 -13 9 -13 -6 -1 -10 7 -18 21 -17 30 0 13 1
14 6 1 3 -8 11 -22 17 -30z m-352 -10 c2 -22 0 -40 -4 -40 -5 0 -8 18 -8 40 0
22 2 40 4 40 2 0 6 -18 8 -40z m215 -2 l2 -23 -19 25 c-25 31 -25 44 -2 31 10
-5 18 -20 19 -33z m1758 32 c-3 -5 -11 -10 -16 -10 -6 0 -7 5 -4 10 3 6 11 10
16 10 6 0 7 -4 4 -10z m3040 -29 c-4 -24 -2 -42 4 -46 6 -3 11 -17 11 -31 0
-16 4 -23 11 -18 8 4 9 0 4 -15 -3 -11 -3 -26 1 -33 4 -7 9 -24 10 -38 2 -22
1 -22 -6 -5 -30 73 -58 190 -49 207 16 29 21 21 14 -21z m-3255 21 c0 -4 -10
-13 -22 -21 -23 -14 -23 -14 -4 8 20 22 26 25 26 13z m2945 -12 c-3 -5 -11
-10 -16 -10 -6 0 -7 5 -4 10 3 6 11 10 16 10 6 0 7 -4 4 -10z m-4300 -21 c8
14 25 14 25 1 0 -5 -6 -9 -12 -7 -9 1 -12 -10 -10 -38 3 -39 3 -39 -11 -15 -7
14 -19 24 -27 22 -8 -2 -10 3 -5 15 4 10 8 24 8 32 0 10 4 9 13 -3 8 -11 14
-13 19 -7z m4660 -2 c-4 -13 -7 -31 -9 -40 -5 -36 -16 -28 -16 12 0 26 4 40
10 36 6 -3 10 -1 10 4 0 6 2 11 5 11 3 0 3 -10 0 -23z m-3819 -3 c18 -14 18
-15 -6 -8 -31 8 -50 24 -29 24 8 0 24 -7 35 -16z m3390 -87 c-3 -15 -2 -26 3
-23 5 3 11 -14 12 -38 2 -24 1 -42 -3 -40 -11 7 -25 72 -31 144 l-6 65 15 -40
c8 -22 13 -53 10 -68z m-4496 71 c0 -19 -2 -20 -10 -8 -9 13 -11 13 -20 0 -8
-13 -10 -13 -10 1 0 19 9 29 27 29 7 0 13 -10 13 -22z m195 11 c11 -17 0 -20
-21 -4 -17 13 -17 14 -2 15 9 0 20 -5 23 -11z m-251 -14 c-6 -16 -24 -21 -24
-7 0 11 11 22 21 22 5 0 6 -7 3 -15z m408 -31 c24 -7 17 -30 -8 -25 -18 3 -18
3 0 -18 18 -20 18 -20 -13 -8 -17 6 -26 14 -20 18 7 4 4 9 -7 13 -13 5 -15 9
-6 18 7 7 12 21 13 33 0 19 1 19 11 -2 6 -13 19 -25 30 -29z m-177 -2 c-5 -5
-77 18 -89 29 -5 4 14 1 42 -8 29 -9 50 -19 47 -21z m236 14 c5 3 9 -19 9 -50
0 -56 -13 -77 -33 -57 -8 8 -6 11 6 11 19 0 23 15 7 25 -5 3 -10 25 -9 48 0
23 3 36 6 29 2 -6 9 -10 14 -6z m69 5 c0 -6 -4 -13 -10 -16 -5 -3 -10 1 -10 9
0 9 5 16 10 16 6 0 10 -4 10 -9z m435 -21 c21 -40 19 -48 -5 -20 -18 21 -27
50 -15 50 2 0 11 -13 20 -30z m780 21 c3 -5 1 -12 -4 -15 -5 -3 -11 1 -15 9
-6 16 9 21 19 6z m142 -5 c0 -8 -6 -12 -14 -9 -7 3 -13 9 -13 14 0 5 6 9 13 9
8 0 14 -6 14 -14z m2780 -18 c-3 -7 -5 -2 -5 12 0 14 2 19 5 13 2 -7 2 -19 0
-25z m-2090 -15 c21 -30 20 -53 -2 -53 -7 0 -15 -6 -18 -12 -3 -8 -7 -6 -12 7
-4 11 -12 30 -18 43 -9 18 -8 25 3 32 22 14 24 13 47 -17z m2430 -10 c-3 -10
-5 -4 -5 12 0 17 2 24 5 18 2 -7 2 -21 0 -30z m-1261 12 c-11 -8 -23 -15 -28
-15 -4 0 -8 -7 -8 -15 0 -18 -16 -20 -24 -2 -3 6 -4 1 -3 -12 1 -14 -4 -26
-13 -28 -12 -4 -12 -3 -1 5 16 11 3 21 -22 16 -25 -3 -17 3 40 37 52 30 93 40
59 14z m-3186 -5 c0 -5 -4 -10 -10 -10 -5 0 -10 5 -10 10 0 6 5 10 10 10 6 0
10 -4 10 -10z m-400 -10 c0 -5 -2 -10 -4 -10 -3 0 -8 5 -11 10 -3 6 -1 10 4
10 6 0 11 -4 11 -10z m2896 -12 c4 -6 0 -16 -9 -23 -9 -7 -14 -15 -11 -18 3
-3 -3 -3 -14 0 -14 3 -22 -1 -27 -17 -10 -32 -68 -56 -100 -42 -25 12 -27 34
-2 28 7 -1 9 -1 5 1 -17 10 -6 24 35 45 35 19 58 27 109 37 4 0 10 -4 14 -11z
m685 -11 c-10 -9 -11 -8 -5 6 3 10 9 15 12 12 3 -3 0 -11 -7 -18z m-1281 -2
c0 -8 -7 -15 -15 -15 -9 0 -12 6 -9 15 4 8 10 15 15 15 5 0 9 -7 9 -15z
m-1053 -9 c-4 -11 -26 -16 -41 -8 -10 6 10 19 30 19 8 0 13 -5 11 -11z m301
-4 c2 -7 -2 -10 -12 -6 -9 3 -16 11 -16 16 0 13 23 5 28 -10z m3309 -4 c-3 -8
-6 -5 -6 6 -1 11 2 17 5 13 3 -3 4 -12 1 -19z m-4737 2 c0 -5 12 -10 28 -10
38 0 102 -19 102 -30 0 -6 7 -10 15 -10 14 0 20 -13 16 -34 -1 -5 4 -13 11
-17 7 -4 9 -11 5 -15 -4 -4 -27 13 -51 39 -24 26 -46 47 -50 47 -11 0 -6 -18
9 -33 12 -13 12 -15 -5 -20 -11 -3 -18 -1 -15 3 8 13 -36 60 -56 60 -9 0 -19
7 -23 15 -3 8 -1 15 4 15 6 0 10 -4 10 -10z m-56 -25 c3 -8 12 -15 20 -15 14
0 34 -65 24 -76 -3 -2 -21 21 -42 51 -24 36 -31 55 -22 55 8 0 16 -7 20 -15z
m1324 -14 c-8 -12 -17 -18 -21 -15 -3 3 2 14 11 25 21 24 28 16 10 -10z m1012
3 c0 -2 -7 -4 -15 -4 -8 0 -15 4 -15 10 0 5 7 7 15 4 8 -4 15 -8 15 -10z
m1440 1 c-7 -9 -8 -15 -2 -15 11 0 11 -18 -1 -37 -5 -7 -5 -17 -2 -23 3 -5 4
-10 1 -10 -7 0 -36 56 -36 68 0 5 10 14 23 20 30 15 31 14 17 -3z m987 -22
c-3 -10 -5 -4 -5 12 0 17 2 24 5 18 2 -7 2 -21 0 -30z m-2507 -1 c0 -21 -2
-22 -15 -12 -8 7 -15 18 -15 25 0 6 7 12 15 12 9 0 15 -10 15 -25z m220 3
c-24 -25 -50 -33 -50 -15 0 9 47 39 64 40 5 0 -1 -11 -14 -25z m1887 -7 c-3
-7 -5 -2 -5 12 0 14 2 19 5 13 2 -7 2 -19 0 -25z m-4727 18 c0 -3 -4 -8 -10
-11 -5 -3 -10 -1 -10 4 0 6 5 11 10 11 6 0 10 -2 10 -4z m630 -12 c0 -8 -5
-12 -10 -9 -6 4 -8 11 -5 16 9 14 15 11 15 -7z m3205 -22 c-6 -7 -35 18 -35
31 0 5 9 2 20 -8 11 -10 18 -20 15 -23z m-1764 -4 c-3 -21 -6 -26 -9 -15 -3
17 3 47 11 47 2 0 1 -15 -2 -32z m-1340 10 c8 -7 13 -12 11 -11 -2 1 -15 -2
-27 -7 -20 -8 -23 -6 -22 10 1 23 17 26 38 8z m-681 -8 c0 -5 -5 -10 -11 -10
-5 0 -7 5 -4 10 3 6 8 10 11 10 2 0 4 -4 4 -10z m4044 2 c3 -5 -1 -9 -9 -9 -8
0 -15 4 -15 9 0 4 4 8 9 8 6 0 12 -4 15 -8z m1016 -41 c6 -25 18 -60 27 -78
17 -37 11 -52 -20 -50 -32 2 -63 41 -58 74 1 6 -3 14 -9 18 -9 5 -15 -15 -11
-37 0 -5 -5 -8 -13 -8 -18 0 -23 -17 -32 -99 -5 -46 -3 -62 5 -57 6 4 11 1 11
-8 0 -9 4 -16 8 -16 4 0 13 -13 19 -30 15 -41 48 -41 56 0 4 16 16 38 27 47
12 10 20 30 20 48 0 23 3 27 10 15 14 -21 12 -74 -2 -88 -7 -7 -21 -12 -31
-12 -16 0 -18 -5 -13 -34 4 -23 2 -35 -6 -39 -7 -2 -22 -20 -32 -38 -16 -28
-17 -31 -3 -26 9 3 19 2 22 -3 4 -6 14 -10 24 -10 15 0 18 -7 17 -32 -2 -25
-6 -32 -19 -30 -16 3 -17 0 -2 -34 41 -99 -8 -97 -54 3 -13 28 -32 55 -43 60
-23 10 -50 74 -51 121 0 17 -4 32 -8 32 -4 0 -11 10 -15 22 -6 21 -7 21 -20 3
-17 -23 -51 -27 -59 -7 -3 8 -3 17 0 20 3 3 5 0 5 -6 0 -7 4 -12 9 -12 5 0 8
23 6 50 -2 28 -1 50 1 50 3 0 16 -8 31 -17 26 -17 26 -17 14 5 -6 12 -23 25
-36 28 -20 5 -25 12 -25 40 0 19 -4 34 -10 34 -5 0 -10 24 -10 54 0 52 1 54
31 60 50 10 71 7 84 -10 6 -9 28 -17 48 -19 31 -2 36 2 42 24 14 55 50 51 65
-8z m-4303 2 c3 -9 -2 -31 -12 -49 -23 -43 -45 -30 -40 24 1 20 3 43 4 50 1
17 40 -3 48 -25z m1853 21 c0 -8 -4 -12 -10 -9 -5 3 -10 10 -10 16 0 5 5 9 10
9 6 0 10 -7 10 -16z m1392 -6 c19 -19 24 -33 8 -23 -5 3 -10 2 -10 -3 0 -5 -7
-9 -15 -9 -10 0 -14 6 -10 15 3 8 0 21 -7 29 -17 21 10 13 34 -9z m-3892 -2
c0 -11 -19 -15 -25 -6 -3 5 1 10 9 10 9 0 16 -2 16 -4z m133 -11 c6 -14 -40
-55 -61 -55 -22 0 -18 26 7 47 31 26 47 29 54 8z m170 8 c-7 -2 -21 -2 -30 0
-10 3 -4 5 12 5 17 0 24 -2 18 -5z m3257 -3 c0 -5 6 -10 13 -10 23 0 77 -31
77 -44 0 -7 7 -13 15 -13 8 0 13 3 10 5 -5 6 56 43 90 55 13 4 9 -1 -10 -15
-16 -13 -41 -33 -55 -45 l-25 -22 26 -1 c15 0 32 7 39 15 12 15 52 16 66 2 4
-4 7 -19 8 -33 1 -15 7 -29 15 -32 10 -3 12 0 8 12 -4 9 -3 15 2 11 5 -3 12 1
14 7 4 9 16 1 36 -22 35 -40 40 -27 16 40 -20 56 -19 60 9 60 18 0 29 -10 45
-45 12 -25 21 -47 21 -51 0 -3 7 -13 16 -22 15 -15 16 -14 9 8 -4 14 -12 27
-16 28 -5 2 -9 22 -9 44 0 36 1 38 16 24 12 -12 20 -13 35 -6 10 6 19 14 19
19 0 5 11 9 25 9 14 0 24 -3 21 -5 -9 -9 16 -63 29 -63 10 0 12 -18 8 -82 -5
-66 -4 -80 7 -73 10 6 12 4 6 -11 -21 -52 -15 -152 13 -199 6 -10 8 -17 10
-37 0 -6 4 -8 7 -5 4 3 8 102 9 219 2 207 4 224 20 261 24 55 29 -27 8 -128
-5 -22 -6 -53 -3 -70 3 -16 3 -46 -1 -65 -4 -19 -5 -51 -1 -70 l8 -34 17 53
c13 42 14 57 5 74 -10 19 -9 20 4 9 13 -10 18 -4 33 43 9 30 21 55 25 55 5 0
4 -15 -2 -32 -22 -67 -21 -95 0 -100 15 -4 22 0 26 17 7 28 -4 118 -15 125 -5
3 -5 18 -1 34 l8 28 33 -33 c18 -19 46 -53 62 -75 15 -23 35 -44 44 -47 20 -8
20 -57 0 -57 -8 0 -15 -7 -15 -15 0 -10 10 -15 30 -15 17 0 30 -5 30 -11 0 -7
8 -6 23 3 45 29 56 29 51 1 -8 -41 -23 -62 -49 -69 -13 -3 -23 -11 -22 -18 1
-6 -5 -11 -13 -11 -9 0 -16 11 -18 27 -2 14 -11 29 -20 33 -14 5 -15 4 -4 -6
20 -21 14 -29 -13 -19 -20 8 -27 6 -35 -10 -13 -25 -13 -30 5 -30 8 0 15 -5
15 -11 0 -5 -10 -9 -22 -7 -18 2 -23 -2 -25 -22 -1 -14 0 -19 3 -12 7 15 48
16 76 1 l20 -11 -21 -19 c-12 -11 -21 -28 -21 -39 0 -10 -4 -22 -10 -25 -16
-10 -12 -19 13 -30 18 -8 23 -19 25 -58 l3 -48 -31 16 c-32 16 -89 25 -202 29
-37 2 -73 8 -80 13 -7 6 -30 13 -51 17 -34 6 -39 5 -44 -13 -3 -12 -9 -21 -14
-21 -10 0 -34 41 -31 53 2 8 -35 11 -83 8 -16 -1 -47 -11 -68 -22 -32 -16 -38
-17 -43 -4 -4 8 -10 12 -15 9 -5 -3 -9 -1 -9 4 0 17 -65 9 -78 -10 -16 -21
-38 -23 -72 -3 -19 11 -21 14 -7 15 20 0 24 20 3 20 -7 0 -20 -10 -29 -22 -12
-19 -18 -21 -28 -10 -9 8 -9 12 -2 12 7 0 23 10 36 23 24 22 24 23 7 45 -10
12 -24 22 -32 22 -7 0 -24 20 -37 45 -29 54 -55 63 -40 13 6 -18 15 -41 20
-50 7 -13 5 -18 -5 -18 -8 0 -16 -6 -19 -14 -3 -7 -17 -13 -31 -13 -14 0 -23
3 -21 7 3 5 -13 6 -35 3 -26 -4 -40 -2 -40 6 0 6 6 11 13 12 6 0 -10 6 -38 13
-35 9 -57 9 -74 2 -13 -6 -18 -12 -12 -14 6 -2 11 -10 11 -18 0 -9 5 -12 13
-8 9 5 9 4 1 -5 -13 -14 -84 -5 -84 10 0 5 -7 9 -16 9 -8 0 -12 -4 -9 -10 3
-6 -1 -7 -10 -3 -12 4 -13 8 -4 13 6 5 9 16 5 25 -4 13 -13 15 -36 10 -22 -5
-30 -3 -30 7 0 19 15 39 27 36 6 -2 20 8 32 21 19 22 26 46 33 111 3 23 7 25
46 23 23 -1 42 2 42 8 0 5 3 8 8 8 41 -7 63 3 78 35 9 19 23 33 30 32 17 -3
31 -16 16 -16 -6 0 -9 -7 -6 -15 4 -11 16 -13 42 -9 45 7 45 7 45 40 0 14 2
22 6 16 4 -7 14 -6 28 2 23 11 22 12 -11 30 -26 14 -32 22 -28 42 2 13 8 25
13 25 5 1 13 2 18 3 23 3 22 16 -1 16 -20 0 -29 7 -36 28 -10 25 -10 25 -11 4
-1 -13 -5 -20 -11 -17 -5 3 -10 0 -10 -7 0 -7 -8 2 -16 19 -18 36 -9 57 31 73
29 12 85 12 85 0z m527 4 c-3 -3 -12 -4 -19 -1 -8 3 -5 6 6 6 11 1 17 -2 13
-5z m-2487 -43 c0 -21 -13 -4 -17 22 -2 17 -1 19 7 7 5 -8 10 -21 10 -29z
m1435 28 c10 -15 -1 -23 -20 -15 -9 3 -13 10 -10 16 8 13 22 13 30 -1z m42 5
c-3 -3 -12 -4 -19 -1 -8 3 -5 6 6 6 11 1 17 -2 13 -5z m1481 -29 c-3 -3 -9 2
-12 12 -6 14 -5 15 5 6 7 -7 10 -15 7 -18z m-4737 -295 c65 -118 123 -223 129
-232 5 -10 16 -15 25 -12 20 8 19 -12 0 -28 -9 -7 -25 -22 -35 -32 -15 -15
-22 -17 -34 -7 -7 6 -20 10 -27 9 -9 -2 -16 18 -23 64 -6 37 -14 70 -18 74 -5
4 -8 18 -8 31 0 13 -5 23 -12 23 -9 0 -9 3 0 12 9 9 8 16 -5 30 -9 10 -13 18
-8 18 4 0 1 7 -6 16 -7 9 -14 22 -15 28 -1 7 -18 47 -38 88 -20 41 -36 80 -36
85 0 6 -16 37 -35 69 -19 32 -35 63 -35 68 1 18 57 -76 181 -304z m977 285
c-3 -3 -9 2 -12 12 -6 14 -5 15 5 6 7 -7 10 -15 7 -18z m3166 9 c3 -8 2 -12
-4 -9 -6 3 -10 10 -10 16 0 14 7 11 14 -7z m-184 -4 c0 -5 -2 -10 -4 -10 -3 0
-8 5 -11 10 -3 6 -1 10 4 10 6 0 11 -4 11 -10z m75 0 c3 -5 1 -10 -4 -10 -6 0
-11 5 -11 10 0 6 2 10 4 10 3 0 8 -4 11 -10z m782 -12 c-3 -8 -6 -5 -6 6 -1
11 2 17 5 13 3 -3 4 -12 1 -19z m367 -20 c9 -17 15 -33 13 -35 -7 -6 -34 31
-42 56 -10 33 10 19 29 -21z m-2126 15 c-10 -2 -28 -2 -40 0 -13 2 -5 4 17 4
22 1 32 -1 23 -4z m1262 -3 c0 -5 -2 -10 -4 -10 -3 0 -8 5 -11 10 -3 6 -1 10
4 10 6 0 11 -4 11 -10z m-275 -9 c3 -5 1 -12 -5 -16 -5 -3 -10 1 -10 9 0 18 6
21 15 7z m802 -38 c-3 -10 -5 -4 -5 12 0 17 2 24 5 18 2 -7 2 -21 0 -30z
m-3999 10 c-2 -10 -11 -19 -21 -21 -16 -3 -17 -1 -5 17 16 25 31 27 26 4z
m1552 -2 c0 -3 -11 -6 -24 -6 -18 0 -22 3 -14 12 9 11 38 7 38 -6z m913 12
c-7 -2 -21 -2 -30 0 -10 3 -4 5 12 5 17 0 24 -2 18 -5z m-2538 -51 c-3 -8 -5
-18 -5 -23 0 -5 -9 0 -20 11 -17 17 -19 24 -9 42 11 21 12 21 26 3 7 -11 11
-26 8 -33z m2222 19 c5 -19 53 -27 53 -9 0 5 -4 6 -10 3 -5 -3 -10 -2 -10 4 0
21 21 21 29 -1 9 -21 10 -21 11 -3 1 17 3 17 11 -5 9 -23 11 -23 20 -7 12 20
29 23 29 3 0 -8 7 -16 15 -20 9 -3 12 -12 8 -21 -5 -13 -7 -14 -14 -3 -7 10
-9 10 -9 1 0 -7 -5 -13 -11 -13 -5 0 -8 4 -5 9 3 5 -5 11 -19 13 -20 4 -23 3
-14 -8 9 -10 3 -12 -28 -8 -82 11 -83 12 -83 49 0 37 18 48 27 16z m-517 -1
c0 -5 -5 -10 -11 -10 -5 0 -7 5 -4 10 3 6 8 10 11 10 2 0 4 -4 4 -10z m42 -19
c2 -17 1 -28 -3 -25 -4 2 -10 0 -14 -6 -3 -5 -11 -10 -17 -10 -7 0 -7 4 0 13
5 6 8 22 6 35 -3 14 1 22 10 22 8 0 16 -13 18 -29z m97 -5 c-24 -12 -36 -1
-20 18 10 12 16 13 26 3 11 -10 10 -14 -6 -21z m2046 -4 c-6 -7 -35 18 -35 31
0 5 9 2 20 -8 11 -10 18 -20 15 -23z m-1899 -7 c-7 -19 -46 -20 -46 -2 0 16
43 39 48 25 2 -5 1 -15 -2 -23z m-376 21 c0 -11 -19 -15 -25 -6 -3 5 1 10 9
10 9 0 16 -2 16 -4z m2367 -18 c-3 -8 -6 -5 -6 6 -1 11 2 17 5 13 3 -3 4 -12
1 -19z m-3749 -28 c6 -16 9 -30 7 -30 -5 0 -35 56 -35 65 0 15 19 -8 28 -35z
m1673 23 c12 -16 12 -17 -2 -6 -9 7 -20 9 -24 5 -5 -4 -5 -1 -1 6 9 16 11 15
27 -5z m164 7 c-3 -5 -14 -10 -23 -9 -14 0 -13 2 3 9 27 11 27 11 20 0z m-243
-32 c-12 -12 -35 -1 -27 12 3 5 13 6 21 3 10 -4 12 -9 6 -15z m2049 -25 c-12
-20 -14 -14 -5 12 4 9 9 14 11 11 3 -2 0 -13 -6 -23z m-3311 1 c0 -8 -4 -12
-10 -9 -5 3 -10 10 -10 16 0 5 5 9 10 9 6 0 10 -7 10 -16z m2120 -10 c0 -8 -4
-12 -10 -9 -5 3 -10 13 -10 21 0 8 5 12 10 9 6 -3 10 -13 10 -21z m1322 -9 c4
-17 1 -25 -8 -25 -9 0 -14 11 -14 31 0 35 15 31 22 -6z m-3352 11 c0 -2 -7 -7
-16 -10 -8 -3 -12 -2 -9 4 6 10 25 14 25 6z m1030 -40 c0 -5 -7 -3 -15 4 -8 7
-12 17 -9 22 7 10 24 -9 24 -26z m1088 9 c-3 -3 -9 2 -12 12 -6 14 -5 15 5 6
7 -7 10 -15 7 -18z m-458 -4 c0 -4 -19 -4 -42 -2 -41 4 -41 5 -13 11 31 7 55
3 55 -9z m-3213 -13 c-3 -8 -6 -5 -6 6 -1 11 2 17 5 13 3 -3 4 -12 1 -19z
m2300 0 c-3 -8 -6 -5 -6 6 -1 11 2 17 5 13 3 -3 4 -12 1 -19z m-70 -8 c12 -17
8 -21 -34 -40 -50 -22 -76 -20 -67 5 3 8 10 13 14 10 5 -3 20 6 34 20 30 30
38 31 53 5z m1061 13 c-10 -2 -28 -2 -40 0 -13 2 -5 4 17 4 22 1 32 -1 23 -4z
m1538 -12 c0 -13 -6 -18 -19 -15 -26 5 -35 14 -13 14 9 0 14 5 11 10 -3 6 0
10 7 10 8 0 14 -9 14 -19z m-4850 -210 c9 -117 14 -215 10 -218 -3 -3 -12 -3
-21 0 -13 6 -15 35 -13 221 2 118 4 213 5 212 2 -1 10 -98 19 -215z m3367 212
c-7 -2 -19 -2 -25 0 -7 3 -2 5 12 5 14 0 19 -2 13 -5z m-2122 -22 c-16 -30
-70 -71 -94 -71 -20 0 -20 0 3 23 30 28 83 66 93 67 4 0 3 -9 -2 -19z m1332
11 c24 12 46 -11 22 -25 -21 -11 -65 3 -65 21 0 12 3 13 12 4 8 -8 17 -8 31 0z
m-2499 -175 c26 -92 50 -183 53 -202 5 -30 3 -33 -14 -29 -20 5 -23 20 -90
379 -13 68 7 10 51 -148z m1523 157 c-3 -3 -12 -4 -19 -1 -8 3 -5 6 6 6 11 1
17 -2 13 -5z m3713 -25 c0 -11 -4 -17 -10 -14 -5 3 -10 13 -10 21 0 8 5 14 10
14 6 0 10 -9 10 -21z m-4590 -4 c0 -8 5 -15 12 -15 6 0 9 -2 6 -5 -3 -3 -13
-3 -22 1 -17 7 -22 34 -6 34 6 0 10 -7 10 -15z m4626 -57 c-13 -134 -15 -153
-25 -183 -7 -23 -9 -7 -10 74 -1 102 13 181 32 181 6 0 7 -28 3 -72z m-4228
41 c-2 -6 -8 -10 -13 -10 -5 0 -11 4 -13 10 -2 6 4 11 13 11 9 0 15 -5 13 -11z
m2172 1 c0 -5 -12 -10 -27 -9 l-28 1 25 8 c14 4 26 8 28 9 1 1 2 -3 2 -9z
m-2585 -31 c11 -17 -1 -21 -15 -4 -8 9 -8 15 -2 15 6 0 14 -5 17 -11z m4058
-40 c43 -23 49 -49 11 -49 -16 0 -24 5 -21 13 2 6 -2 20 -11 30 -17 20 -10 22
21 6z m-4103 -69 c-6 -11 -13 -20 -16 -20 -2 0 0 9 6 20 6 11 13 20 16 20 2 0
0 -9 -6 -20z m40 10 c0 -5 -5 -10 -11 -10 -5 0 -7 5 -4 10 3 6 8 10 11 10 2 0
4 -4 4 -10z m4366 -27 c10 -16 39 -50 65 -78 33 -35 56 -73 78 -129 16 -44 28
-83 25 -88 -11 -17 -45 -7 -76 22 -31 30 -66 42 -52 18 5 -10 4 -10 -6 -1 -7
6 -19 9 -27 6 -7 -3 -21 1 -31 9 -23 21 -75 30 -68 13 3 -9 -2 -11 -15 -8 -15
4 -17 9 -10 16 6 6 11 19 11 29 0 46 64 218 80 218 4 0 16 -12 26 -27z m-3926
-34 c0 -6 -4 -7 -10 -4 -5 3 -10 11 -10 16 0 6 5 7 10 4 6 -3 10 -11 10 -16z
m1790 11 c0 -5 -7 -10 -16 -10 -8 0 -12 5 -9 10 3 6 10 10 16 10 5 0 9 -4 9
-10z m-1671 -44 c-1 -18 -2 -18 -6 -3 -5 19 -30 18 -26 -1 2 -6 -6 -10 -17 -9
-11 1 -20 7 -20 14 0 7 6 10 14 7 8 -3 17 -1 21 5 3 6 1 11 -4 11 -6 0 -11 4
-11 10 0 6 10 5 25 -2 16 -7 25 -19 24 -32z m1774 37 c-13 -2 -35 -2 -50 0
-16 2 -5 4 22 4 28 0 40 -2 28 -4z m-1138 -13 c3 -5 -1 -10 -9 -10 -9 0 -16 5
-16 10 0 6 4 10 9 10 6 0 13 -4 16 -10z m1577 -6 c-13 -9 -26 -13 -30 -9 -8 8
17 25 38 25 9 0 6 -6 -8 -16z m-2122 -54 c0 -9 -58 -19 -65 -12 -3 3 0 11 6
19 9 10 8 13 -2 14 -8 0 -5 4 6 9 19 7 55 -12 55 -30z m380 30 c0 -5 -5 -10
-11 -10 -5 0 -7 5 -4 10 3 6 8 10 11 10 2 0 4 -4 4 -10z m1959 7 c-2 -1 -12
-9 -22 -16 -15 -12 -17 -12 -11 3 3 9 13 16 22 16 8 0 13 -1 11 -3z m-749 -17
c0 -5 -7 -10 -16 -10 -8 0 -12 5 -9 10 3 6 10 10 16 10 5 0 9 -4 9 -10z
m-1073 -6 c-3 -3 -12 -4 -19 -1 -8 3 -5 6 6 6 11 1 17 -2 13 -5z m73 -24 c0
-4 -11 -10 -25 -12 -27 -6 -35 9 -10 18 8 4 12 11 8 18 -4 6 1 5 10 -3 9 -7
17 -17 17 -21z m1875 19 c4 -6 -2 -13 -14 -16 -12 -3 -21 -12 -21 -19 0 -17
-37 -18 -73 -1 -33 15 -36 31 -4 23 14 -3 32 1 43 9 22 17 60 19 69 4z m-2590
-6 c-11 -3 -23 -10 -26 -15 -4 -6 -15 -8 -25 -6 -17 4 -16 6 6 16 14 6 34 10
45 10 l20 0 -20 -5z m322 1 c-3 -3 -12 -4 -19 -1 -8 3 -5 6 6 6 11 1 17 -2 13
-5z m1337 -9 c3 -9 0 -15 -9 -15 -8 0 -15 7 -15 15 0 8 4 15 9 15 5 0 11 -7
15 -15z m-1177 -1 c-3 -3 -12 -4 -19 -1 -8 3 -5 6 6 6 11 1 17 -2 13 -5z m58
-9 c-16 -7 -32 -11 -35 -9 -7 8 24 24 45 23 15 0 13 -4 -10 -14z m-1121 -6
c-8 -13 -83 -33 -92 -25 -12 13 29 35 64 34 18 -1 31 -5 28 -9z m2911 1 c-3
-5 -16 -10 -28 -9 -21 0 -21 1 -2 9 28 12 37 12 30 0z m110 0 c-3 -5 -10 -10
-16 -10 -5 0 -9 5 -9 10 0 6 7 10 16 10 8 0 12 -4 9 -10z m-2705 -10 c0 -5 -4
-10 -10 -10 -5 0 -10 5 -10 10 0 6 5 10 10 10 6 0 10 -4 10 -10z m50 0 c8 -5
11 -10 5 -10 -5 0 -17 5 -25 10 -8 5 -10 10 -5 10 6 0 17 -5 25 -10z m685 -2
c1 -2 -6 -12 -17 -23 -14 -14 -19 -16 -16 -5 2 10 -5 15 -22 14 -44 -1 -104
-14 -110 -24 -3 -5 -12 -5 -19 -1 -19 12 -2 20 55 26 27 4 50 10 52 16 3 8 70
6 77 -3z m2405 -3 c0 -8 -4 -15 -10 -15 -5 0 -7 7 -4 15 4 8 8 15 10 15 2 0 4
-7 4 -15z m-2350 -15 c0 -5 -5 -10 -11 -10 -5 0 -7 5 -4 10 3 6 8 10 11 10 2
0 4 -4 4 -10z m-1060 -22 l35 -23 -28 -3 c-15 -2 -34 3 -41 11 -8 8 -27 13
-43 11 -16 -2 -19 -1 -8 2 11 3 24 10 30 15 13 12 15 12 55 -13z m150 -13 c7
-8 19 -15 26 -15 23 0 16 -17 -9 -22 -15 -3 -28 3 -40 18 -23 31 -2 49 23 19z
m870 11 c0 -3 -4 -8 -10 -11 -5 -3 -10 -1 -10 4 0 6 5 11 10 11 6 0 10 -2 10
-4z m-285 -24 c-3 -3 -11 0 -18 7 -9 10 -8 11 6 5 10 -3 15 -9 12 -12z m30 9
c3 -5 2 -12 -3 -15 -5 -3 -9 1 -9 9 0 17 3 19 12 6z m2947 -5 c7 4 8 2 4 -4
-11 -18 -26 -14 -25 6 0 10 3 12 6 4 2 -6 10 -9 15 -6z m-2863 -5 l24 -6 -26
-12 c-21 -10 -25 -10 -21 2 3 7 -2 15 -13 18 -11 3 -12 5 -3 5 8 0 26 -3 39
-7z m111 -1 c0 -5 -10 -10 -22 -10 -19 0 -20 2 -8 10 19 13 30 13 30 0z m3200
0 c0 -5 -2 -10 -4 -10 -3 0 -8 5 -11 10 -3 6 -1 10 4 10 6 0 11 -4 11 -10z
m-3420 -28 c0 -5 -6 -9 -12 -10 -73 -9 -154 -27 -159 -35 -4 -5 -16 -7 -28 -4
-12 3 -21 1 -21 -4 0 -5 -19 -9 -43 -9 -23 0 -56 -4 -72 -9 -17 -4 -39 -5 -50
-1 -15 6 -9 9 28 15 26 4 50 11 53 16 3 5 20 9 38 9 17 0 36 4 42 9 15 14 97
24 89 11 -7 -12 51 -5 90 11 27 10 45 11 45 1z m-1270 -12 c-8 -5 -22 -10 -30
-10 -13 0 -13 1 0 10 8 5 22 10 30 10 13 0 13 -1 0 -10z m438 -47 c-10 -2 -28
-2 -40 0 -13 2 -5 4 17 4 22 1 32 -1 23 -4z m422 -24 c0 -5 -5 -7 -12 -3 -7 4
-8 3 -4 -4 4 -7 24 -12 44 -12 l37 -1 -49 -19 c-27 -11 -54 -25 -58 -32 -7
-10 -9 -9 -5 2 2 8 14 21 28 27 24 13 24 13 -8 13 -17 0 -38 -7 -47 -15 -9
-10 -17 -11 -21 -5 -8 14 14 34 50 48 39 14 45 14 45 1z m120 -19 c-8 -5 -18
-6 -24 -3 -5 4 -1 10 10 13 24 9 34 2 14 -10z m-730 -24 c0 -2 -7 -7 -16 -10
-8 -3 -12 -2 -9 4 6 10 25 14 25 6z m488 -20 c-7 -8 -15 -12 -17 -11 -5 6 10
25 20 25 5 0 4 -6 -3 -14z m4876 -12 c9 -22 8 -24 -9 -18 -8 4 -15 12 -15 20
0 19 16 18 24 -2z m-4994 -14 c0 -5 -5 -10 -11 -10 -5 0 -7 5 -4 10 3 6 8 10
11 10 2 0 4 -4 4 -10z"/>
<path d="M5530 3270 c0 -5 5 -10 11 -10 5 0 7 5 4 10 -3 6 -8 10 -11 10 -2 0
-4 -4 -4 -10z"/>
<path d="M4985 3240 c3 -5 8 -10 11 -10 2 0 4 5 4 10 0 6 -5 10 -11 10 -5 0
-7 -4 -4 -10z"/>
<path d="M4890 3180 c0 -5 5 -10 11 -10 5 0 7 5 4 10 -3 6 -8 10 -11 10 -2 0
-4 -4 -4 -10z"/>
<path d="M4930 3168 c1 -17 39 -67 40 -51 0 18 -22 63 -32 63 -4 0 -8 -6 -8
-12z"/>
<path d="M5122 3140 c0 -14 2 -19 5 -12 2 6 2 18 0 25 -3 6 -5 1 -5 -13z"/>
<path d="M5301 3081 c-21 -14 -4 -33 19 -21 10 5 25 10 32 10 7 0 2 -6 -12
-13 -25 -13 -40 -47 -21 -47 6 0 11 8 11 18 0 12 2 14 8 4 14 -21 42 -3 42 27
0 24 -4 28 -33 29 -17 1 -38 -3 -46 -7z"/>
<path d="M5416 3042 c-4 -6 -2 -20 4 -31 15 -28 13 -36 -15 -62 -27 -26 -37
-61 -10 -39 16 14 35 6 35 -16 0 -8 5 -14 10 -14 7 0 7 6 1 18 -11 22 4 43 24
36 28 -11 25 30 -3 60 -16 17 -32 38 -34 46 -3 10 -6 11 -12 2z m44 -73 c0 -5
-4 -9 -10 -9 -5 0 -10 7 -10 16 0 8 5 12 10 9 6 -3 10 -10 10 -16z"/>
<path d="M5127 2941 c-4 -17 -3 -21 5 -13 5 5 8 16 6 23 -3 8 -7 3 -11 -10z"/>
<path d="M5175 2920 c-13 -6 -15 -9 -5 -9 8 0 22 4 30 9 18 12 2 12 -25 0z"/>
<path d="M5544 2911 c20 -22 26 -25 26 -13 0 4 -10 13 -22 21 -23 14 -23 14
-4 -8z"/>
<path d="M5468 2838 c-23 -8 -40 -28 -23 -28 12 0 55 24 55 32 0 4 -1 8 -2 7
-2 0 -15 -5 -30 -11z"/>
<path d="M236 3281 c-10 -16 13 -63 28 -58 7 3 25 -1 40 -8 19 -10 26 -11 26
-2 0 17 -12 33 -30 40 -12 4 -11 6 3 6 24 1 21 18 -5 25 -33 8 -56 7 -62 -3z"/>
<path d="M407 3033 c-12 -11 -8 -23 8 -23 8 0 15 7 15 15 0 16 -12 20 -23 8z"/>
<path d="M830 3200 c-13 -9 -12 -12 4 -25 11 -8 27 -15 35 -15 14 0 14 2 1 11
-12 9 -11 10 8 6 26 -6 27 -4 6 17 -18 18 -33 20 -54 6z"/>
<path d="M744 2876 c0 -13 4 -22 9 -19 10 6 9 43 -2 43 -5 0 -8 -11 -7 -24z"/>
<path d="M563 2793 c9 -2 25 -2 35 0 9 3 1 5 -18 5 -19 0 -27 -2 -17 -5z"/>
<path d="M573 2763 c-7 -3 -13 -11 -13 -20 0 -12 2 -12 16 2 18 17 16 25 -3
18z"/>
<path d="M896 2524 c-8 -21 -8 -64 0 -64 15 0 30 34 26 56 -5 28 -17 31 -26 8z"/>
<path d="M1070 2432 c0 -5 6 -15 14 -21 11 -9 15 -8 20 6 4 10 4 14 0 10 -4
-4 -13 -2 -21 4 -8 7 -13 8 -13 1z"/>
<path d="M1102 2398 c-16 -16 -15 -28 3 -28 8 0 15 9 15 20 0 23 -2 24 -18 8z"/>
<path d="M2322 2196 c1 -10 8 -17 13 -17 15 1 12 24 -3 29 -9 3 -13 -2 -10
-12z"/>
<path d="M2493 2080 c-15 -14 -23 -16 -26 -7 -3 7 -6 0 -6 -15 -1 -23 -21 -53
-21 -31 0 4 -3 19 -7 32 -4 17 -3 22 5 17 7 -4 12 -2 12 3 0 15 -13 14 -36 -4
-12 -9 -15 -17 -9 -22 6 -5 16 -20 22 -35 7 -16 16 -28 21 -28 4 0 6 -19 4
-41 -3 -29 -1 -40 7 -35 6 4 11 3 11 -3 0 -5 -4 -12 -10 -16 -5 -3 -7 -12 -4
-20 4 -8 10 -12 15 -9 5 3 7 9 4 14 -3 5 -1 11 4 14 5 4 12 25 16 48 4 24 14
53 22 65 8 12 12 31 8 43 -4 13 -1 22 9 26 9 3 16 10 16 15 0 16 -36 9 -57
-11z m-3 -101 c0 -11 -4 -18 -10 -14 -5 3 -7 12 -3 20 7 21 13 19 13 -6z"/>
<path d="M5520 2651 c0 -5 5 -13 10 -16 6 -3 10 -2 10 4 0 5 -4 13 -10 16 -5
3 -10 2 -10 -4z"/>
<path d="M5260 2612 c0 -5 7 -9 15 -9 8 0 12 4 9 9 -3 4 -9 8 -15 8 -5 0 -9
-4 -9 -8z"/>
<path d="M2807 2358 l-29 -40 31 21 c17 12 31 31 31 42 0 10 -1 19 -2 19 -2
-1 -16 -19 -31 -42z"/>
<path d="M4741 2554 c-26 -33 -27 -50 -2 -57 16 -4 21 2 26 35 9 50 3 56 -24
22z"/>
<path d="M4863 2483 c-13 -2 -23 -9 -23 -15 0 -6 10 -8 23 -4 12 3 32 6 45 6
13 0 20 4 17 10 -6 10 -22 11 -62 3z"/>
<path d="M4680 2350 c0 -13 11 -13 30 0 12 8 11 10 -7 10 -13 0 -23 -4 -23
-10z"/>
<path d="M5205 2129 c-11 -16 -1 -19 13 -3 7 8 8 14 3 14 -5 0 -13 -5 -16 -11z"/>
<path d="M2050 2370 c0 -13 18 -22 24 -11 3 5 -1 11 -9 15 -8 3 -15 1 -15 -4z"/>
<path d="M2938 2263 c7 -3 16 -2 19 1 4 3 -2 6 -13 5 -11 0 -14 -3 -6 -6z"/>
<path d="M3328 2243 c7 -3 16 -2 19 1 4 3 -2 6 -13 5 -11 0 -14 -3 -6 -6z"/>
<path d="M2780 2214 c-18 -16 -30 -20 -37 -13 -7 7 -17 -1 -32 -26 -26 -44
-26 -44 -2 -38 12 3 17 11 14 19 -3 9 2 14 16 14 13 0 21 -6 21 -17 0 -14 2
-14 20 2 19 17 20 17 14 2 -5 -15 -2 -17 22 -12 16 3 56 8 89 12 42 4 54 8 40
14 -17 6 -15 8 8 8 51 2 8 27 -72 43 -72 15 -74 14 -101 -8z"/>
<path d="M2690 2226 c0 -2 7 -7 16 -10 8 -3 12 -2 9 4 -6 10 -25 14 -25 6z"/>
<path d="M4006 2214 c-4 -10 -1 -14 6 -12 15 5 23 28 10 28 -5 0 -13 -7 -16
-16z"/>
<path d="M3075 2170 c-3 -5 1 -10 10 -10 9 0 13 5 10 10 -3 6 -8 10 -10 10 -2
0 -7 -4 -10 -10z"/>
<path d="M3175 2150 c-3 -5 3 -10 15 -10 12 0 18 5 15 10 -3 6 -10 10 -15 10
-5 0 -12 -4 -15 -10z"/>
<path d="M3255 2150 c-7 -11 18 -24 35 -18 6 2 1 9 -9 15 -13 8 -22 9 -26 3z"/>
<path d="M2710 2110 c-8 -5 -11 -12 -7 -16 4 -4 15 0 24 9 18 18 8 23 -17 7z"/>
<path d="M2797 2109 c-37 -9 -97 -36 -97 -44 0 -2 17 3 37 12 21 8 71 21 113
28 63 11 68 13 30 13 -25 0 -62 -4 -83 -9z"/>
<path d="M2978 2103 c6 -2 18 -2 25 0 6 3 1 5 -13 5 -14 0 -19 -2 -12 -5z"/>
<path d="M4237 2089 c4 -13 8 -18 11 -10 2 7 -1 18 -6 23 -8 8 -9 4 -5 -13z"/>
<path d="M2657 2089 c-9 -6 -15 -14 -12 -20 4 -5 0 -11 -7 -14 -8 -3 -14 -15
-15 -26 -1 -12 -10 -28 -20 -36 -10 -8 -11 -11 -3 -7 12 7 13 5 3 -8 -7 -8
-10 -17 -7 -21 3 -3 -4 -10 -15 -17 -12 -6 -19 -15 -16 -20 3 -4 0 -10 -6 -12
-9 -3 -9 -9 -1 -24 9 -17 8 -20 -6 -20 -9 1 -19 -3 -20 -9 -2 -5 -9 -16 -15
-24 -10 -12 -9 -13 3 -6 8 4 5 -3 -8 -17 -16 -18 -20 -28 -12 -33 8 -5 8 -11
-1 -21 -14 -17 -33 -19 -23 -1 4 7 3 9 -2 4 -5 -5 -9 -12 -9 -15 -1 -4 -7 -18
-15 -32 -7 -14 -13 -27 -12 -30 1 -3 -3 -5 -10 -5 -6 0 -12 -8 -14 -18 -1 -9
2 -15 7 -11 5 3 9 -2 9 -12 0 -16 7 -12 118 87 19 16 40 29 47 29 7 0 15 7 19
15 6 17 36 21 36 4 0 -5 4 -8 10 -4 5 3 6 13 3 22 -4 11 -3 14 5 9 7 -4 12 -2
12 3 0 16 -36 13 -54 -4 -8 -8 -23 -15 -33 -15 -15 1 -13 5 10 25 26 23 35 45
19 45 -4 0 -14 -6 -21 -12 -9 -9 -8 -2 3 19 9 17 13 39 10 48 -8 20 33 66 52
58 8 -3 14 1 14 10 0 9 3 23 7 33 5 13 3 15 -8 9 -11 -7 -11 -4 1 15 29 46 15
81 -23 59z"/>
<path d="M3058 2093 c12 -2 30 -2 40 0 9 3 -1 5 -23 4 -22 0 -30 -2 -17 -4z"/>
<path d="M2800 2081 c-50 -10 -100 -39 -100 -57 0 -13 5 -12 26 5 15 12 32 21
38 21 7 0 8 -3 1 -8 -12 -8 -41 -52 -68 -101 -12 -23 -15 -37 -8 -44 7 -7 12
-1 17 17 9 35 24 33 24 -4 0 -28 2 -30 38 -29 32 0 34 1 15 9 -13 5 -23 12
-23 15 0 4 5 3 10 0 6 -3 10 -1 10 4 0 8 7 7 19 -1 16 -10 23 -9 39 5 10 9 22
14 26 10 4 -4 2 5 -4 21 -6 16 -9 31 -6 33 2 3 -2 19 -9 37 -15 35 -11 46 20
64 19 11 19 11 -5 11 -14 -1 -41 -4 -60 -8z"/>
<path d="M2990 2045 c0 -46 7 -54 28 -33 9 9 12 9 12 -1 0 -7 6 -11 14 -8 10
4 13 1 10 -7 -3 -7 2 -16 10 -19 10 -4 13 -1 9 9 -9 25 22 15 52 -16 16 -16
25 -30 19 -30 -16 -1 29 -23 52 -26 38 -4 98 -26 117 -42 17 -15 37 -20 112
-27 17 -1 37 -5 45 -8 39 -14 111 -24 116 -16 3 5 2 9 -3 8 -33 -6 -63 3 -64
19 0 10 -3 12 -6 5 -6 -16 -30 -17 -39 -1 -5 8 -2 9 9 5 9 -3 19 -2 22 3 4 6
17 7 31 4 19 -5 26 -1 33 17 5 13 10 18 10 12 1 -7 8 -13 17 -13 11 0 13 -6 9
-19 -3 -11 -1 -22 4 -25 6 -4 8 -13 5 -20 -3 -9 5 -16 21 -20 24 -6 25 -9 13
-24 -12 -15 -11 -16 5 -3 20 16 23 43 3 35 -9 -3 -17 10 -26 43 -37 146 -40
153 -63 158 -41 9 -551 85 -572 85 -3 0 -5 -20 -5 -45z m228 -44 c3 -8 0 -11
-7 -7 -6 4 -21 9 -32 11 -35 7 -33 13 2 12 18 -1 34 -8 37 -16z"/>
<path d="M4130 2022 c0 -7 -7 -12 -15 -12 -10 0 -14 -7 -11 -22 3 -13 5 -26 5
-30 1 -5 5 -8 10 -8 9 0 22 71 15 79 -2 2 -4 -1 -4 -7z"/>
<path d="M3717 1979 c12 -12 25 -20 28 -17 3 3 -7 13 -22 23 l-28 17 22 -23z"/>
<path d="M3740 1996 c0 -2 17 -14 38 -25 l37 -21 -30 25 c-28 23 -45 31 -45
21z"/>
<path d="M3530 1779 c0 -11 5 -17 10 -14 6 3 10 -1 10 -9 0 -9 7 -16 16 -16 8
0 13 -3 11 -7 -3 -5 10 -16 29 -25 33 -17 34 -17 34 1 0 36 -12 50 -46 57 -19
3 -32 10 -29 14 3 4 -2 11 -11 14 -23 9 -24 8 -24 -15z m57 -25 c-3 -3 -12 -4
-19 -1 -8 3 -5 6 6 6 11 1 17 -2 13 -5z"/>
<path d="M1896 1591 c-8 -12 16 -70 31 -75 7 -3 13 -1 13 4 0 6 -5 10 -12 10
-6 0 -8 3 -5 6 3 4 1 16 -5 28 -7 11 -11 24 -10 29 3 10 -6 9 -12 -2z"/>
<path d="M1805 1420 c-3 -5 -1 -10 4 -10 6 0 11 5 11 10 0 6 -2 10 -4 10 -3 0
-8 -4 -11 -10z"/>
<path d="M2301 1363 c0 -25 1 -26 9 -8 12 27 12 35 0 35 -5 0 -10 -12 -9 -27z"/>
<path d="M2080 1279 c11 -20 12 -20 31 -3 22 20 26 32 5 15 -10 -8 -16 -9 -21
-1 -12 20 -26 10 -15 -11z"/>
<path d="M2878 1164 c-6 -5 -29 -11 -51 -13 -5 -1 -2 -8 7 -16 17 -18 30 -20
20 -3 -5 8 -2 9 9 5 11 -4 17 -1 17 9 0 9 5 12 12 8 7 -4 8 -3 4 4 -8 14 -10
14 -18 6z"/>
<path d="M2006 1131 c-3 -5 -27 -7 -53 -4 -43 4 -45 4 -30 -12 20 -19 23 -32
4 -17 -15 13 -87 11 -87 -2 0 -5 15 -6 34 -3 28 4 34 3 29 -9 -3 -9 -12 -12
-25 -8 -13 4 -18 2 -14 -4 3 -5 15 -12 27 -15 11 -3 18 -3 14 1 -9 9 95 43
109 35 7 -4 6 -1 -1 9 -16 18 -5 32 14 17 9 -8 13 -8 13 -1 0 6 10 13 23 15
14 3 8 5 -15 6 -20 0 -39 -3 -42 -8z"/>
<path d="M3321 1081 c-10 -7 -10 -10 -1 -16 6 -4 16 -3 22 3 13 13 -4 23 -21
13z"/>
<path d="M2345 1030 c-3 -6 1 -7 9 -4 18 7 21 14 7 14 -6 0 -13 -4 -16 -10z"/>
<path d="M2750 1014 c0 -8 5 -12 10 -9 6 4 8 11 5 16 -9 14 -15 11 -15 -7z"/>
<path d="M2500 985 c0 -8 2 -15 4 -15 2 0 6 7 10 15 3 8 1 15 -4 15 -6 0 -10
-7 -10 -15z"/>
<path d="M3790 2225 c0 -8 7 -15 15 -15 8 0 15 4 15 9 0 5 -7 11 -15 15 -9 3
-15 0 -15 -9z"/>
<path d="M1842 2120 c0 -19 2 -27 5 -17 2 9 2 25 0 35 -3 9 -5 1 -5 -18z"/>
<path d="M2006 1967 c3 -10 9 -15 12 -12 3 3 0 11 -7 18 -10 9 -11 8 -5 -6z"/>
<path d="M1931 1874 c-18 -8 -32 -17 -29 -19 4 -4 89 23 97 31 10 10 -37 1
-68 -12z"/>
<path d="M1855 1840 c-3 -5 -1 -10 4 -10 6 0 11 5 11 10 0 6 -2 10 -4 10 -3 0
-8 -4 -11 -10z"/>
<path d="M1880 1820 c0 -5 7 -10 15 -10 8 0 15 5 15 10 0 6 -7 10 -15 10 -8 0
-15 -4 -15 -10z"/>
<path d="M4345 1830 c10 -11 22 -20 27 -20 4 0 3 9 -4 20 -7 11 -19 20 -27 20
-11 0 -10 -5 4 -20z"/>
<path d="M4258 1743 c7 -3 16 -2 19 1 4 3 -2 6 -13 5 -11 0 -14 -3 -6 -6z"/>
<path d="M4268 1673 c-4 -13 1 -19 14 -19 11 0 17 6 16 15 -4 22 -25 24 -30 4z"/>
<path d="M845 1580 c3 -5 8 -10 11 -10 2 0 4 5 4 10 0 6 -5 10 -11 10 -5 0 -7
-4 -4 -10z"/>
<path d="M5292 1490 c0 -14 2 -19 5 -12 2 6 2 18 0 25 -3 6 -5 1 -5 -13z"/>
<path d="M5290 1226 c0 -2 10 -25 22 -52 18 -41 22 -46 28 -29 8 22 -15 71
-37 79 -7 3 -13 4 -13 2z"/>
<path d="M5260 1189 c0 -15 7 -32 15 -39 20 -17 20 5 0 40 l-14 25 -1 -26z"/>
<path d="M1071 1514 c0 -11 3 -14 6 -6 3 7 2 16 -1 19 -3 4 -6 -2 -5 -13z"/>
<path d="M3990 1500 c0 -5 5 -10 11 -10 5 0 7 5 4 10 -3 6 -8 10 -11 10 -2 0
-4 -4 -4 -10z"/>
<path d="M3976 1461 c-3 -5 8 -11 26 -13 28 -5 29 -4 13 9 -22 15 -32 16 -39
4z"/>
<path d="M4472 1445 c-7 -15 -8 -25 -2 -25 6 0 10 5 10 10 0 6 10 10 23 11 15
0 17 2 7 6 -8 3 -18 10 -21 15 -3 5 -11 -3 -17 -17z"/>
<path d="M4207 1443 c-20 -35 -15 -99 6 -86 5 3 7 1 3 -5 -3 -6 3 -26 14 -45
13 -22 17 -38 11 -41 -7 -4 -7 -15 -1 -31 7 -18 5 -25 -6 -29 -22 -8 -36 -7
-30 2 2 4 1 13 -3 20 -6 9 -15 9 -40 -4 -25 -12 -29 -19 -21 -29 9 -10 7 -16
-8 -24 -11 -6 -22 -7 -26 -4 -3 4 -3 -9 0 -28 7 -32 19 -49 37 -49 5 0 6 4 3
9 -3 4 6 6 19 3 14 -2 24 -10 23 -18 -2 -7 2 -12 7 -11 6 1 9 5 8 9 -4 12 15
10 22 -2 10 -16 25 -12 25 8 0 9 9 23 21 30 18 11 20 20 16 60 -5 46 -8 61
-20 92 -3 8 -8 35 -12 60 -12 88 -34 138 -48 113z m-70 -315 c-3 -8 -6 -5 -6
6 -1 11 2 17 5 13 3 -3 4 -12 1 -19z"/>
<path d="M4306 1421 c-10 -15 19 -49 31 -37 4 4 3 10 -3 14 -6 4 -13 14 -16
22 -3 11 -6 11 -12 1z"/>
<path d="M4500 1343 c0 -22 2 -25 10 -13 13 20 13 40 0 40 -5 0 -10 -12 -10
-27z"/>
<path d="M4436 1339 c-17 -17 -17 -19 -3 -25 9 -3 14 -10 11 -15 -3 -5 0 -9 6
-9 7 0 10 -7 6 -15 -3 -8 -2 -15 3 -15 5 0 14 7 21 15 10 12 10 15 -1 15 -10
0 -10 3 -1 12 7 7 12 19 12 28 0 13 -1 13 -10 0 -8 -13 -10 -13 -10 2 0 25
-13 28 -34 7z"/>
<path d="M4786 1193 c-4 -60 -9 -121 -13 -137 -3 -19 -2 -26 6 -22 6 4 11 16
11 26 0 10 6 21 13 23 9 4 9 8 -1 15 -20 14 -10 47 13 47 29 0 34 51 6 60 -36
11 -26 34 13 28 48 -8 56 19 12 46 -18 12 -38 21 -43 21 -6 0 -13 -46 -17
-107z"/>
<path d="M4173 1273 c-18 -7 -16 -23 2 -23 8 0 15 5 15 11 0 6 7 8 16 5 8 -3
12 -2 9 4 -7 11 -22 12 -42 3z"/>
<path d="M4420 1270 c0 -5 5 -10 10 -10 6 0 10 5 10 10 0 6 -4 10 -10 10 -5 0
-10 -4 -10 -10z"/>
<path d="M4456 1238 c3 -5 10 -6 15 -3 13 9 11 12 -6 12 -8 0 -12 -4 -9 -9z"/>
<path d="M4723 1235 c4 -9 7 -23 7 -30 0 -7 7 -15 15 -19 25 -9 19 41 -7 55
-18 10 -20 9 -15 -6z"/>
<path d="M4320 1200 c0 -11 7 -20 15 -20 8 0 15 5 15 11 0 5 -4 7 -10 4 -5 -3
-10 -2 -10 4 0 5 6 12 13 14 7 3 5 6 -5 6 -12 1 -18 -6 -18 -19z"/>
<path d="M4052 1145 c-17 -19 -16 -28 3 -31 11 -2 15 3 11 11 -3 8 -1 17 4 20
5 3 11 -2 13 -10 4 -12 5 -12 3 1 -1 23 -18 27 -34 9z"/>
<path d="M4321 1154 c0 -6 -12 -23 -26 -38 -13 -14 -21 -26 -18 -26 4 0 -2 -6
-13 -14 -23 -17 -14 -30 14 -22 29 9 54 53 49 84 -2 15 -5 22 -6 16z"/>
<path d="M4736 1104 c-4 -9 -4 -19 -1 -22 2 -3 7 3 11 12 4 9 4 19 1 22 -2 3
-7 -3 -11 -12z"/>
<path d="M4547 1070 c3 -11 7 -20 9 -20 2 0 4 9 4 20 0 11 -4 20 -9 20 -5 0
-7 -9 -4 -20z"/>
<path d="M3725 1070 c3 -5 11 -10 16 -10 6 0 7 5 4 10 -3 6 -11 10 -16 10 -6
0 -7 -4 -4 -10z"/>
<path d="M4679 1069 c-1 -2 -3 -15 -4 -29 -2 -14 -7 -36 -11 -50 -7 -23 -6
-24 9 -11 9 7 17 21 17 30 0 9 5 22 10 27 8 8 6 15 -5 24 -8 7 -16 11 -16 9z"/>
<path d="M4340 1044 c0 -6 -7 -17 -15 -24 -18 -15 -20 -40 -2 -40 12 0 87 69
76 71 -31 6 -59 2 -59 -7z"/>
<path d="M4721 1034 c0 -11 3 -14 6 -6 3 7 2 16 -1 19 -3 4 -6 -2 -5 -13z"/>
<path d="M3903 1023 c9 -2 23 -2 30 0 6 3 -1 5 -18 5 -16 0 -22 -2 -12 -5z"/>
<path d="M4442 994 c-15 -16 -8 -34 14 -34 15 0 16 6 6 31 -6 15 -9 15 -20 3z"/>
<path d="M4778 931 c-21 -51 -11 -61 13 -14 11 21 15 41 11 45 -5 5 -16 -9
-24 -31z"/>
<path d="M3298 1373 c6 -2 18 -2 25 0 6 3 1 5 -13 5 -14 0 -19 -2 -12 -5z"/>
<path d="M940 856 c0 -2 7 -7 16 -10 8 -3 12 -2 9 4 -6 10 -25 14 -25 6z"/>
<path d="M1648 3533 c-10 -2 -18 -11 -18 -19 0 -17 2 -17 35 -2 42 19 31 34
-17 21z"/>
<path d="M4000 3250 c0 -5 5 -10 11 -10 5 0 7 5 4 10 -3 6 -8 10 -11 10 -2 0
-4 -4 -4 -10z"/>
<path d="M1263 2685 c0 -8 2 -15 4 -15 3 0 11 7 19 15 14 13 13 15 -4 15 -10
0 -19 -7 -19 -15z"/>
<path d="M29 2193 c-1 -4 -1 -11 0 -15 0 -4 -6 -5 -14 -2 -13 5 -15 -7 -15
-75 0 -45 2 -81 4 -81 1 0 23 26 48 58 l45 57 -34 33 c-18 18 -34 29 -34 25z"/>
</g>
</svg>
